<svg xmlns="http://www.w3.org/2000/svg" width="1024" height="1024" viewBox="0 0 1024 1024">
<g>
<path d="M 494.79 1005.50 C487.99,1011.62 486.88,1011.39 488.91,1004.33 L 489.81 1001.16 L 481.16 1000.49 C370.20,991.90 265.73,943.41 184.95,863.00 C142.21,820.46 111.95,778.14 85.95,724.56 C60.96,673.06 45.96,622.97 39.07,568.00 C19.39,410.88 72.95,255.65 184.20,147.41 C231.92,100.98 287.26,66.07 350.50,42.51 C464.08,0.20 593.08,4.18 703.75,53.42 C783.97,89.11 852.96,147.64 902.47,222.00 C917.58,244.69 923.73,255.33 935.16,278.47 C981.53,372.40 997.50,483.00 979.95,588.50 C966.24,670.88 932.37,748.71 881.62,814.50 C863.82,837.57 831.75,871.41 810.50,889.53 C765.92,927.54 712.03,958.43 658.50,976.65 C620.33,989.64 576.68,998.33 538.18,1000.62 L 526.86 1001.29 L 527.48 1003.90 C527.82,1005.33 528.33,1007.29 528.61,1008.25 C529.49,1011.21 527.14,1010.21 522.10,1005.50 L 517.29 1001.00 L 499.79 1001.00 ZM 567.00 919.49 C567.00,921.05 569.04,920.56 574.76,917.64 C576.27,916.87 585.60,913.45 595.50,910.04 C623.86,900.27 633.73,894.77 656.08,876.26 C679.17,857.13 689.23,850.57 720.50,834.24 C757.92,814.69 776.92,801.83 796.89,782.51 C832.72,747.87 862.55,698.60 883.60,639.27 C896.73,602.29 902.43,571.89 902.31,539.50 C902.18,504.36 896.81,480.94 878.48,435.50 C863.21,397.62 859.24,383.58 854.48,350.50 C849.76,317.63 844.59,299.32 833.59,276.47 C806.09,219.32 758.14,182.95 689.50,167.16 C682.35,165.52 670.20,162.72 662.50,160.95 C654.80,159.18 643.55,156.17 637.50,154.26 C609.66,145.50 577.26,125.27 578.19,117.23 C578.47,114.73 578.91,114.47 583.27,114.19 C586.30,114.00 592.52,115.06 600.27,117.08 C616.26,121.25 620.33,122.02 621.32,121.06 C623.35,119.09 593.59,95.37 581.82,89.58 C563.26,80.44 541.32,81.41 529.71,91.87 C524.23,96.81 522.04,101.99 522.05,110.00 C522.08,123.39 527.88,133.88 544.50,150.52 C558.09,164.13 570.28,172.80 589.58,182.59 C605.52,190.67 617.09,195.14 656.00,208.21 C690.31,219.74 708.19,227.47 725.50,238.26 C757.36,258.12 781.80,288.20 793.44,321.88 C798.26,335.84 800.25,343.96 804.48,367.00 C809.32,393.37 814.68,414.14 822.04,435.04 C842.93,494.43 845.49,504.61 846.68,533.00 C848.34,572.79 837.26,617.51 814.44,663.11 C789.52,712.90 760.61,747.40 720.41,775.33 C715.95,778.42 701.17,787.70 687.56,795.94 C660.32,812.44 651.93,818.21 636.82,830.80 C618.72,845.87 606.11,853.85 595.37,857.02 L 591.25 858.24 L 590.77 865.68 C590.66,867.45 590.62,868.71 590.45,869.95 C589.85,874.31 587.57,878.44 574.15,904.26 C570.22,911.83 567.00,918.68 567.00,919.49 ZM 441.16 914.93 C445.72,916.96 448.00,917.43 448.00,916.35 C448.00,914.98 440.49,900.15 436.26,893.18 C428.02,879.57 425.67,873.45 425.19,864.42 L 424.76 856.25 L 416.56 852.09 C408.28,847.89 398.01,840.43 376.36,822.90 C362.52,811.69 355.92,807.20 331.45,792.30 C296.80,771.19 284.26,762.03 266.11,744.52 C239.35,718.70 215.74,682.76 196.46,638.50 C174.69,588.51 169.34,537.83 180.99,492.00 C184.47,478.35 187.99,467.87 198.85,438.83 C208.45,413.18 213.79,394.86 218.60,371.00 C225.49,336.86 228.64,326.60 238.10,307.50 C245.97,291.60 255.12,278.95 268.50,265.47 C281.05,252.82 292.88,243.71 308.00,235.05 C324.25,225.75 338.97,219.67 371.07,209.03 C405.72,197.54 422.19,191.20 438.00,183.24 C490.36,156.91 518.97,115.85 500.23,93.96 C498.34,91.74 495.05,89.04 492.92,87.96 C488.13,85.52 477.82,83.03 472.50,83.03 C460.54,83.04 444.67,89.28 430.34,99.61 C421.33,106.11 405.18,120.01 405.07,121.36 C404.98,122.46 409.23,121.68 426.41,117.44 C442.70,113.41 448.56,113.04 449.49,115.96 C450.32,118.57 449.09,120.59 443.33,126.15 C428.54,140.39 400.78,153.18 369.00,160.38 C362.67,161.81 350.30,164.60 341.50,166.59 C279.61,180.54 237.16,207.36 207.08,251.50 C187.49,280.24 176.61,309.27 169.99,350.50 C164.52,384.52 160.66,397.74 145.79,433.50 C131.25,468.44 125.31,487.38 121.33,511.50 C118.78,526.96 118.81,561.74 121.38,578.50 C129.26,629.91 156.73,694.32 190.89,741.50 C211.27,769.66 237.45,794.16 267.00,812.74 C272.23,816.02 286.17,823.89 298.00,830.23 C334.08,849.56 342.21,854.96 368.90,877.36 C386.44,892.07 401.93,900.76 425.16,908.91 C431.57,911.16 438.77,913.87 441.16,914.93 ZM 632.50 710.54 C643.15,712.22 648.36,712.24 655.23,710.62 C665.22,708.27 670.81,702.34 672.95,691.83 C673.95,686.92 673.83,684.98 672.06,677.50 C670.92,672.74 670.00,667.80 670.00,666.52 C670.00,665.05 668.94,663.52 667.11,662.35 C665.53,661.33 662.54,658.47 660.48,656.00 L 656.73 651.50 L 665.61 650.92 C675.64,650.28 678.69,649.07 679.62,645.40 C680.61,641.42 678.60,638.26 674.30,637.07 C669.22,635.66 667.15,635.72 657.08,637.61 C648.76,639.17 640.64,639.02 637.48,637.25 C636.39,636.64 639.69,634.78 649.23,630.61 L 650.99 629.85 C667.60,622.60 671.43,620.93 675.08,621.26 C676.30,621.38 677.50,621.72 679.15,622.15 C686.79,624.14 687.82,623.12 684.88,616.47 C683.18,612.62 682.86,610.38 683.26,605.33 L 683.77 599.00 L 679.63 599.02 C677.36,599.04 673.49,599.51 671.03,600.08 C665.98,601.24 659.64,599.46 656.50,596.00 C653.96,593.20 653.34,585.65 655.40,582.52 C657.37,579.51 659.00,579.25 659.00,581.95 C659.00,585.08 661.03,588.68 663.55,590.03 C665.54,591.09 666.75,590.92 671.69,588.89 C679.64,585.62 687.46,585.76 695.72,589.32 C699.14,590.79 703.32,592.00 705.02,592.00 C708.78,592.00 713.00,588.11 713.00,584.63 C713.00,583.28 710.03,572.57 706.40,560.84 C704.96,556.19 703.65,551.95 702.45,548.08 C690.72,510.23 689.80,507.24 690.49,504.68 C690.62,504.20 690.80,503.73 690.98,503.06 C691.76,500.20 694.06,496.73 698.06,492.43 C702.54,487.62 704.00,485.32 704.00,483.09 C704.00,481.47 702.23,472.79 700.07,463.82 C697.90,454.84 695.53,444.58 694.81,441.00 C693.56,434.90 693.27,434.43 689.99,433.31 C685.04,431.61 665.86,431.73 655.38,433.51 C637.43,436.57 611.46,443.04 572.68,454.12 L 553.86 459.50 L 549.70 467.50 C546.40,473.85 542.95,478.18 532.96,488.50 C525.30,496.42 518.56,504.46 515.73,509.08 C510.25,518.00 502.80,525.31 496.22,528.24 C489.01,531.45 478.03,531.77 470.50,529.00 C467.20,527.79 463.38,526.82 462.00,526.84 C459.93,526.87 459.04,525.90 456.80,521.19 C452.96,513.08 449.06,508.85 441.82,504.95 C436.03,501.82 434.79,501.54 427.00,501.56 C420.28,501.57 417.65,502.02 414.43,503.72 C409.44,506.34 403.58,512.67 401.47,517.73 C399.20,523.15 398.53,532.91 399.93,540.20 C403.51,558.84 423.64,585.67 440.29,593.99 C449.72,598.70 456.31,597.70 463.31,590.49 L 466.95 586.74 L 467.94 589.34 C468.48,590.77 470.11,597.24 471.55,603.72 C474.68,617.80 477.99,628.05 481.90,635.79 C495.76,663.21 525.41,681.54 583.23,698.44 C602.80,704.15 622.12,708.90 632.50,710.54 ZM 460.47 977.48 C472.41,979.02 475.47,979.20 476.26,978.41 C476.59,978.08 474.49,975.41 471.60,972.47 L 466.34 967.13 L 455.37 965.60 C420.22,960.69 378.56,948.90 345.31,934.45 C265.83,899.89 198.51,843.24 149.34,769.50 C108.17,707.77 81.99,636.02 73.51,561.63 C69.91,530.11 69.91,485.95 73.51,454.33 C86.10,343.52 132.29,247.51 209.11,172.49 C276.85,106.32 364.62,64.12 458.50,52.60 C526.09,44.30 590.85,50.35 650.83,70.58 C759.68,107.30 846.78,182.88 899.64,286.50 C928.84,343.73 945.28,404.35 950.08,472.50 C951.39,491.18 950.80,534.67 949.00,551.50 C939.84,636.95 913.38,710.64 868.19,776.50 C795.74,882.10 687.07,949.87 564.50,965.88 L 549.50 967.84 L 543.66 973.42 L 537.82 979.00 L 542.67 979.00 C545.33,979.00 553.36,978.32 560.51,977.49 C636.04,968.71 708.74,939.97 770.55,894.44 C828.15,852.02 879.26,791.34 911.41,727.19 C984.75,580.89 980.21,400.28 899.70,261.00 C827.52,136.14 703.97,54.80 563.15,39.43 C542.73,37.20 508.44,36.52 487.00,37.92 C409.96,42.94 339.70,65.33 275.00,105.48 C224.44,136.86 179.14,180.16 143.27,231.41 C104.13,287.34 76.80,354.53 65.02,423.83 C55.44,480.18 55.81,542.76 66.03,597.22 C77.52,658.45 102.95,720.92 137.79,773.50 C212.51,886.28 330.25,960.71 460.47,977.48 ZM 495.66 823.95 C509.27,826.24 521.67,824.76 535.50,819.19 C543.41,816.01 545.56,815.57 553.28,815.53 L 562.06 815.50 L 562.97 812.00 C565.52,802.20 567.69,793.27 576.45,756.58 C581.70,734.62 585.88,716.56 585.74,716.44 C585.61,716.32 575.38,712.84 563.00,708.70 C521.37,694.79 501.76,684.08 484.40,665.77 C472.40,653.12 464.34,638.39 459.79,620.80 L 457.61 612.36 L 450.05 612.41 C443.55,612.45 441.54,612.00 435.56,609.19 C431.74,607.39 426.71,604.37 424.39,602.46 C422.06,600.56 419.73,599.00 419.19,599.00 C418.66,599.00 417.91,600.68 417.52,602.73 C416.13,610.17 411.64,622.76 406.20,634.47 L 400.64 646.43 L 402.95 657.67 C406.05,672.78 405.59,688.41 401.77,697.63 C396.90,709.40 389.94,717.77 374.84,730.00 L 369.29 734.50 L 377.33 745.00 C395.15,768.28 419.99,796.23 435.75,810.77 L 445.76 820.00 L 450.63 817.76 C454.48,815.99 457.27,815.53 464.00,815.55 C471.52,815.57 473.56,816.02 481.66,819.36 C486.70,821.44 493.00,823.51 495.66,823.95 ZM 362.00 456.74 L 362.00 463.03 L 365.76 460.65 C372.22,456.57 380.28,452.74 386.00,451.03 L 391.50 449.39 L 392.10 443.94 C393.19,433.98 399.00,426.14 408.50,421.84 C412.93,419.83 415.60,419.51 432.02,419.04 C450.40,418.50 450.59,418.48 457.02,415.28 C460.59,413.50 474.72,403.70 488.44,393.50 C527.71,364.28 556.59,345.65 591.00,327.38 C600.62,322.27 609.12,317.71 609.88,317.26 C610.84,316.69 607.46,314.55 598.88,310.30 C583.27,302.57 572.07,298.65 556.10,295.33 C545.03,293.02 541.14,292.70 524.00,292.69 C506.75,292.67 503.05,292.98 491.94,295.30 C447.68,304.57 413.51,326.87 391.58,360.77 C374.21,387.63 362.00,427.24 362.00,456.74 ZM 467.24 459.92 C481.53,462.13 498.71,459.56 530.19,450.53 C538.61,448.12 557.42,442.72 572.00,438.53 C628.25,422.36 651.48,417.15 671.19,416.28 C690.44,415.43 700.23,417.94 706.79,425.41 C709.62,428.63 711.93,434.19 712.03,438.00 C712.09,440.47 715.82,435.32 716.97,431.17 C719.21,423.12 717.30,413.70 710.55,399.38 C704.78,387.15 699.10,378.92 690.58,370.48 C682.30,362.27 677.33,359.53 672.42,360.45 C665.78,361.69 634.72,375.02 578.08,400.92 C523.29,425.98 486.60,441.02 491.08,436.59 C492.00,435.69 528.41,414.16 549.80,401.88 C586.30,380.92 642.47,353.80 664.28,346.58 C675.94,342.73 685.67,345.28 696.25,354.95 C705.14,363.07 706.00,361.36 699.23,349.00 C692.41,336.55 677.17,315.31 672.16,311.25 C669.44,309.05 666.05,309.87 650.29,316.54 C593.73,340.50 551.12,365.79 490.63,411.29 C462.15,432.71 458.84,434.09 434.50,434.69 C425.15,434.93 416.24,435.60 414.71,436.19 C411.08,437.60 409.00,440.67 409.00,444.61 L 409.00 447.77 L 415.74 448.49 C419.45,448.89 431.15,451.40 441.74,454.08 C452.32,456.77 463.80,459.39 467.24,459.92 ZM 520.13 999.03 C521.79,1001.31 523.36,1002.97 523.63,1002.70 C523.90,1002.44 522.96,996.32 521.56,989.10 C518.51,973.48 518.49,973.00 520.80,973.00 C524.28,973.00 533.01,967.79 536.85,963.44 C540.94,958.79 542.26,955.58 548.97,934.00 C553.71,918.79 559.83,904.10 566.07,893.00 C574.71,877.62 577.21,873.19 577.79,868.51 C578.03,866.62 577.95,864.69 577.84,861.97 L 577.84 861.96 C577.54,854.41 577.04,852.47 573.66,845.63 C564.66,827.43 556.50,824.16 538.36,831.47 C527.41,835.89 521.27,837.00 507.87,837.00 C495.07,837.00 489.27,835.90 478.31,831.38 C469.15,827.60 460.12,826.85 455.10,829.45 C450.69,831.73 446.06,837.69 441.81,846.55 C438.33,853.79 437.89,855.56 437.89,862.14 C437.89,871.13 438.14,871.84 446.94,887.26 C455.52,902.31 461.63,916.73 467.53,935.87 C473.18,954.18 476.90,961.96 481.93,965.95 C486.25,969.37 493.56,972.94 496.30,972.98 C498.32,973.00 498.27,973.53 494.90,989.45 C493.85,994.38 493.02,999.33 493.04,1000.45 C493.07,1002.27 493.35,1002.16 495.54,999.50 C500.56,993.41 507.00,972.62 507.00,962.49 C507.00,956.45 508.74,955.91 509.48,961.73 C511.89,980.51 515.25,992.28 520.13,999.03 ZM 296.53 721.46 C300.72,726.04 302.35,726.07 300.45,721.53 C298.51,716.89 298.61,706.51 300.66,700.43 C302.01,696.40 304.44,693.41 314.00,684.00 C323.56,674.59 325.99,671.60 327.34,667.57 C330.83,657.20 328.72,646.36 320.41,631.96 C313.97,620.79 312.67,616.30 313.20,607.13 C314.02,592.98 320.87,584.50 339.17,574.96 C357.94,565.17 365.87,555.04 371.56,533.60 C376.96,513.25 385.45,501.64 400.00,494.74 C415.44,487.42 429.07,487.10 450.00,493.56 C461.27,497.04 463.59,497.42 473.50,497.44 C486.34,497.46 491.28,495.91 503.21,488.13 C510.81,483.16 528.99,466.34 525.50,467.49 C517.48,470.15 498.77,474.25 490.26,475.23 C476.36,476.82 463.87,475.31 438.56,468.99 C420.89,464.57 417.42,464.00 408.06,464.01 C398.98,464.02 396.32,464.44 389.07,466.96 C368.27,474.20 354.04,489.92 349.49,510.68 C343.23,539.23 337.27,547.66 314.95,559.48 C295.65,569.71 288.04,579.76 287.21,596.10 C286.63,607.51 288.37,613.17 296.04,624.81 C305.27,638.82 306.48,641.98 306.48,652.00 C306.48,662.24 304.77,666.07 296.08,675.41 C288.48,683.58 286.60,688.55 287.20,698.88 C287.71,707.75 290.79,715.19 296.53,721.46 ZM 359.02 780.82 L 359.04 785.50 L 361.02 783.00 C363.26,780.16 366.00,771.93 366.00,768.01 C366.00,762.99 361.08,755.22 353.80,748.76 C342.13,738.38 339.32,729.31 344.39,718.41 C346.72,713.41 348.31,711.82 362.85,699.95 C376.81,688.55 381.20,673.69 375.13,658.35 C374.07,655.68 371.16,650.18 368.65,646.12 C362.78,636.61 361.40,630.42 363.32,622.11 C365.08,614.50 368.61,609.31 375.79,603.79 C386.66,595.42 393.25,583.27 393.31,571.51 C393.33,567.93 392.23,563.85 389.47,557.20 L 385.61 547.89 L 382.52 556.80 C376.76,573.36 371.85,579.48 355.51,590.46 C345.83,596.97 342.68,600.33 339.24,607.81 C337.16,612.33 336.85,614.30 337.15,620.93 C337.46,627.70 338.00,629.65 341.26,635.62 C350.27,652.14 352.43,657.33 352.82,663.49 C353.60,675.69 349.09,683.91 336.17,693.85 C319.36,706.79 314.94,721.10 322.89,736.75 C326.95,744.73 331.40,749.56 342.20,757.75 C356.83,768.83 358.98,771.78 359.02,780.82 ZM 499.49 953.00 C499.83,955.47 499.75,959.12 499.31,961.10 C498.52,964.62 498.44,964.67 495.39,963.60 C490.83,961.99 485.63,958.13 483.15,954.52 C481.96,952.78 478.57,943.96 475.62,934.93 C468.83,914.15 465.20,905.09 458.51,892.25 C455.58,886.61 453.38,882.00 453.62,882.00 C453.87,882.00 456.29,883.13 459.01,884.50 C461.73,885.88 466.28,887.34 469.12,887.75 C474.77,888.57 474.80,888.61 478.36,897.79 C480.64,903.67 484.87,910.97 486.00,911.00 C486.27,911.00 486.36,906.53 486.18,901.06 C486.01,895.53 486.32,890.26 486.89,889.20 C489.10,885.08 508.63,883.26 522.23,885.91 C528.71,887.17 528.97,887.34 529.58,890.57 C529.93,892.42 530.05,897.73 529.85,902.39 C529.52,910.43 529.59,910.78 531.27,909.26 C533.50,907.24 540.00,894.33 540.00,891.92 C540.00,889.56 540.51,889.30 549.64,886.97 C553.89,885.88 558.40,884.31 559.65,883.49 C560.90,882.67 562.07,882.00 562.23,882.00 C562.40,882.00 559.36,888.41 555.48,896.25 C550.78,905.74 546.12,917.46 541.54,931.34 C537.31,944.14 533.57,953.67 531.84,956.06 C529.11,959.84 522.66,964.00 519.54,964.00 C517.28,964.00 517.51,953.16 519.99,942.81 C522.55,932.14 522.52,926.71 519.89,921.26 C516.81,914.90 515.04,915.88 512.20,925.51 C508.48,938.12 508.43,938.19 507.09,933.00 C503.97,920.88 502.53,917.50 500.50,917.50 C497.81,917.50 495.00,923.29 495.00,928.83 C495.00,931.22 495.87,936.62 496.93,940.83 C497.99,945.05 499.14,950.53 499.49,953.00 ZM 653.71 531.89 C648.09,534.61 640.03,535.22 631.50,533.58 C619.90,531.34 610.23,526.89 592.51,515.65 C585.84,511.42 584.35,510.07 585.73,509.53 C606.45,501.32 618.77,498.57 631.78,499.24 C636.88,499.51 641.25,499.40 641.50,499.00 C642.09,498.04 631.04,493.44 623.54,491.52 C615.36,489.43 603.17,489.61 591.74,492.00 C586.47,493.10 581.45,494.27 580.58,494.61 C579.71,494.94 579.01,494.83 579.02,494.36 C579.05,492.75 592.05,485.75 600.79,482.62 C608.89,479.72 610.37,479.51 622.00,479.63 C633.55,479.74 635.56,480.07 648.37,483.88 C664.75,488.75 669.22,489.02 674.48,485.45 C676.54,484.05 678.45,483.12 678.72,483.38 C679.74,484.40 677.73,492.10 675.63,495.23 C674.43,497.03 671.28,499.67 668.63,501.11 C665.99,502.54 662.73,504.81 661.39,506.16 L 658.94 508.61 L 661.06 513.39 C664.32,520.77 661.37,528.19 653.71,531.89 ZM 444.22 282.83 C445.72,286.17 446.54,286.99 447.83,286.45 C453.39,284.09 471.38,278.00 472.80,277.98 C473.74,277.98 475.07,277.61 475.77,277.17 C477.05,276.35 477.00,276.00 467.86,223.18 L 465.56 209.86 L 462.20 210.49 C456.10,211.63 439.39,216.70 430.87,219.99 C426.27,221.77 421.50,223.61 420.29,224.08 L 418.07 224.92 L 420.45 230.21 C421.76,233.12 427.20,245.18 432.55,257.00 C437.90,268.83 443.15,280.45 444.22,282.83 ZM 493.51 271.70 C493.80,272.60 497.84,272.76 509.70,272.31 C518.39,271.99 525.71,271.54 525.96,271.32 C526.65,270.71 532.91,205.58 532.33,205.00 C531.56,204.22 501.41,204.50 492.95,205.36 C488.80,205.79 484.83,206.49 484.12,206.93 C483.11,207.55 483.91,214.27 487.97,239.11 C490.80,256.37 493.29,271.04 493.51,271.70 ZM 400.25 306.26 L 405.22 312.03 L 409.86 308.49 C412.41,306.54 418.21,302.64 422.75,299.82 C427.29,297.00 431.00,294.50 431.00,294.27 C431.00,293.41 403.76,234.47 402.97,233.63 C401.46,232.01 375.05,247.44 365.15,255.72 L 361.81 258.53 L 378.55 279.51 C387.75,291.06 397.52,303.09 400.25,306.26 ZM 566.50 276.43 C575.40,278.90 575.50,278.85 578.56,270.75 C580.06,266.76 584.09,256.30 587.51,247.50 C595.80,226.18 598.37,219.03 597.89,218.55 C595.66,216.33 551.83,205.84 550.46,207.20 C550.19,207.48 548.83,218.68 547.44,232.10 C546.05,245.52 544.54,259.88 544.08,264.00 C543.63,268.12 543.53,271.77 543.88,272.11 C544.22,272.44 548.33,273.24 553.00,273.88 C557.67,274.52 563.75,275.67 566.50,276.43 ZM 321.51 374.84 L 350.50 384.76 L 355.59 374.50 C358.39,368.86 361.66,362.67 362.85,360.74 L 365.02 357.24 L 338.76 338.97 C324.32,328.92 311.87,320.65 311.09,320.60 C308.05,320.39 289.43,361.83 291.60,364.00 C292.11,364.51 305.57,369.39 321.51,374.84 ZM 278.90 430.57 C279.14,430.80 292.50,431.00 308.60,431.00 L 337.86 431.00 L 338.98 425.25 C339.60,422.09 341.17,415.23 342.47,410.01 C344.23,402.97 344.54,400.32 343.67,399.76 C342.12,398.76 287.83,380.99 286.33,381.00 C285.14,381.00 284.38,383.89 281.50,399.29 C279.87,408.03 278.07,429.73 278.90,430.57 ZM 358.92 332.82 L 374.34 343.74 L 376.89 340.62 C378.29,338.90 382.32,334.24 385.84,330.25 C390.42,325.06 391.97,322.64 391.27,321.75 C384.77,313.37 349.54,270.43 349.00,270.21 C347.20,269.50 319.98,301.75 320.01,304.56 C320.01,305.08 325.30,309.19 331.76,313.70 C338.22,318.21 350.44,326.82 358.92,332.82 ZM 286.51 496.65 C286.86,497.81 334.20,480.32 335.85,478.43 C336.30,477.92 336.46,470.86 336.22,462.75 L 335.78 448.00 L 278.70 448.00 L 279.32 457.25 C279.95,466.53 283.09,485.45 285.08,492.00 C285.67,493.92 286.31,496.02 286.51,496.65 ZM 601.86 289.44 C607.71,292.39 612.62,294.69 612.76,294.56 C612.90,294.43 620.48,282.90 629.60,268.94 L 646.18 243.56 L 643.34 241.29 C641.78,240.04 634.71,236.03 627.63,232.39 C617.44,227.14 614.58,226.05 613.89,227.13 C613.41,227.88 610.92,233.90 608.36,240.50 C605.80,247.10 600.90,259.61 597.47,268.30 L 591.23 284.10 ZM 454.17 569.35 C453.17,570.26 451.03,570.99 449.42,570.98 C445.61,570.96 432.17,563.10 428.20,558.57 C420.85,550.20 423.71,536.23 433.68,531.82 L 438.05 529.89 L 436.28 526.90 C429.08,514.72 414.00,521.19 414.00,536.47 C414.00,542.56 412.42,542.21 411.05,535.80 C408.81,525.35 412.15,516.20 419.40,512.90 C426.67,509.61 433.34,510.91 440.23,516.97 C447.32,523.22 449.12,528.57 448.78,542.45 L 448.50 553.88 L 452.25 557.73 C456.49,562.09 457.23,566.57 454.17,569.35 ZM 300.76 533.25 C303.82,539.71 306.65,545.00 307.05,545.00 C307.45,545.00 310.52,543.16 313.89,540.92 C324.45,533.87 329.65,525.85 333.00,511.52 C334.09,506.81 335.65,501.39 336.45,499.48 C337.24,497.56 337.72,496.00 337.49,496.00 C336.80,496.00 293.52,513.15 293.06,513.61 C292.33,514.33 294.87,520.81 300.76,533.25 ZM 631.00 524.44 C641.00,527.03 649.74,525.85 652.57,521.53 C653.87,519.54 653.91,518.82 652.81,517.00 C649.82,512.06 638.63,508.93 624.57,509.10 C615.73,509.20 606.50,510.94 606.50,512.51 C606.50,513.97 624.61,522.79 631.00,524.44 ZM 547.78 861.93 C546.09,862.52 544.66,862.96 544.60,862.91 C544.55,862.86 543.04,862.40 541.25,861.88 C539.46,861.37 538.00,860.61 538.00,860.20 C538.00,859.34 552.26,845.00 553.10,845.00 C553.41,845.00 553.76,847.46 553.88,850.46 C554.14,856.92 552.32,860.35 547.78,861.93 ZM 476.34 860.74 C475.39,861.43 472.94,862.00 470.90,862.00 C467.96,862.00 466.63,861.34 464.55,858.88 C462.31,856.21 461.96,854.96 462.21,850.38 C462.37,847.43 462.80,845.01 463.18,845.00 C463.55,845.00 467.05,848.26 470.96,852.24 C477.37,858.77 477.90,859.60 476.34,860.74 ZM 579.91 605.31 C577.44,610.71 570.57,610.40 568.60,604.81 C567.89,602.80 568.09,601.51 569.39,599.52 C570.83,597.34 571.75,596.94 574.80,597.19 C579.40,597.58 581.73,601.30 579.91,605.31 Z" fill="rgb(96,8,18)"/>
<path d="M 509.86 964.55 C509.73,963.63 509.60,962.69 509.48,961.73 C508.74,955.91 507.00,956.45 507.00,962.49 C507.00,966.99 505.73,973.60 503.87,980.09 C505.75,973.32 507.00,966.24 507.00,960.99 C507.00,952.79 508.63,952.64 509.44,960.76 C509.57,962.04 509.71,963.31 509.86,964.55 ZM 520.13 999.03 C517.81,995.82 515.83,991.48 514.14,985.78 C515.85,991.38 517.88,995.92 520.13,999.03 Z" fill="rgb(154,108,113)"/>
<path d="M 0.00 512.00 L 0.00 0.00 L 512.00 0.00 L 1024.00 0.00 L 1024.00 512.00 L 1024.00 1024.00 L 512.00 1024.00 L 0.00 1024.00 L 0.00 512.00 ZM 494.79 1005.50 L 499.79 1001.00 L 508.54 1001.00 L 517.29 1001.00 L 522.10 1005.50 C527.14,1010.21 529.49,1011.21 528.61,1008.25 C528.33,1007.29 527.82,1005.33 527.48,1003.90 L 526.86 1001.29 L 538.18 1000.62 C576.68,998.33 620.33,989.64 658.50,976.65 C712.03,958.43 765.92,927.54 810.50,889.53 C831.75,871.41 863.82,837.57 881.62,814.50 C932.37,748.71 966.24,670.88 979.95,588.50 C997.50,483.00 981.53,372.40 935.16,278.47 C923.73,255.33 917.58,244.69 902.47,222.00 C852.96,147.64 783.97,89.11 703.75,53.42 C593.08,4.18 464.08,0.20 350.50,42.51 C287.26,66.07 231.92,100.98 184.20,147.41 C72.95,255.65 19.39,410.88 39.07,568.00 C45.96,622.97 60.96,673.06 85.95,724.56 C111.95,778.14 142.21,820.46 184.95,863.00 C265.73,943.41 370.20,991.90 481.16,1000.49 L 489.81 1001.16 L 488.91 1004.33 C486.88,1011.39 487.99,1011.62 494.79,1005.50 ZM 520.13 999.03 C515.09,992.07 511.15,977.95 509.44,960.76 C508.63,952.64 507.00,952.79 507.00,960.99 C507.00,972.54 500.92,992.98 495.54,999.50 C493.35,1002.16 493.07,1002.27 493.04,1000.45 C493.02,999.33 493.85,994.38 494.90,989.45 C498.27,973.53 498.32,973.00 496.30,972.98 C493.56,972.94 486.25,969.37 481.93,965.95 C476.90,961.96 473.18,954.18 467.53,935.87 C461.63,916.73 455.52,902.31 446.94,887.26 C438.14,871.84 437.89,871.13 437.89,862.14 C437.89,855.56 438.33,853.79 441.81,846.55 C446.06,837.69 450.69,831.73 455.10,829.45 C460.12,826.85 469.15,827.60 478.31,831.38 C489.27,835.90 495.07,837.00 507.87,837.00 C521.27,837.00 527.41,835.89 538.36,831.47 C556.50,824.16 564.66,827.43 573.66,845.63 C577.04,852.47 577.54,854.41 577.84,861.96 C578.22,871.39 578.22,871.39 566.07,893.00 C559.83,904.10 553.71,918.79 548.97,934.00 C542.26,955.58 540.94,958.79 536.85,963.44 C533.01,967.79 524.28,973.00 520.80,973.00 C518.49,973.00 518.51,973.48 521.56,989.10 C522.96,996.32 523.90,1002.44 523.63,1002.70 C523.36,1002.97 521.79,1001.31 520.13,999.03 ZM 499.49 953.00 C499.14,950.53 497.99,945.05 496.93,940.83 C495.87,936.62 495.00,931.22 495.00,928.83 C495.00,923.29 497.81,917.50 500.50,917.50 C502.53,917.50 503.97,920.88 507.09,933.00 C508.43,938.19 508.48,938.12 512.20,925.51 C515.04,915.88 516.81,914.90 519.89,921.26 C522.52,926.71 522.55,932.14 519.99,942.81 C517.51,953.16 517.28,964.00 519.54,964.00 C522.66,964.00 529.11,959.84 531.84,956.06 C533.57,953.67 537.31,944.14 541.54,931.34 C546.12,917.46 550.78,905.74 555.48,896.25 C559.36,888.41 562.40,882.00 562.23,882.00 C562.07,882.00 560.90,882.67 559.65,883.49 C558.40,884.31 553.89,885.88 549.64,886.97 C540.51,889.30 540.00,889.56 540.00,891.92 C540.00,894.33 533.50,907.24 531.27,909.26 C529.59,910.78 529.52,910.43 529.85,902.39 C530.05,897.73 529.93,892.42 529.58,890.57 C528.97,887.34 528.71,887.17 522.23,885.91 C508.63,883.26 489.10,885.08 486.89,889.20 C486.32,890.26 486.01,895.53 486.18,901.06 C486.36,906.53 486.27,911.00 486.00,911.00 C484.87,910.97 480.64,903.67 478.36,897.79 C474.80,888.61 474.77,888.57 469.12,887.75 C466.28,887.34 461.73,885.88 459.01,884.50 C456.29,883.13 453.87,882.00 453.62,882.00 C453.38,882.00 455.58,886.61 458.51,892.25 C465.20,905.09 468.83,914.15 475.62,934.93 C478.57,943.96 481.96,952.78 483.15,954.52 C485.63,958.13 490.83,961.99 495.39,963.60 C498.44,964.67 498.52,964.62 499.31,961.10 C499.75,959.12 499.83,955.47 499.49,953.00 ZM 547.78 861.93 C552.32,860.35 554.14,856.92 553.88,850.46 C553.76,847.46 553.41,845.00 553.10,845.00 C552.26,845.00 538.00,859.34 538.00,860.20 C538.00,860.61 539.46,861.37 541.25,861.88 C543.04,862.40 544.55,862.86 544.60,862.91 C544.66,862.96 546.09,862.52 547.78,861.93 ZM 476.34 860.74 C477.90,859.60 477.37,858.77 470.96,852.24 C467.05,848.26 463.55,845.00 463.18,845.00 C462.80,845.01 462.37,847.43 462.21,850.38 C461.96,854.96 462.31,856.21 464.55,858.88 C466.63,861.34 467.96,862.00 470.90,862.00 C472.94,862.00 475.39,861.43 476.34,860.74 ZM 460.47 977.48 C330.25,960.71 212.51,886.28 137.79,773.50 C102.95,720.92 77.52,658.45 66.03,597.22 C55.81,542.76 55.44,480.18 65.02,423.83 C76.80,354.53 104.13,287.34 143.27,231.41 C179.14,180.16 224.44,136.86 275.00,105.48 C339.70,65.33 409.96,42.94 487.00,37.92 C508.44,36.52 542.73,37.20 563.15,39.43 C703.97,54.80 827.52,136.14 899.70,261.00 C980.21,400.28 984.75,580.89 911.41,727.19 C879.26,791.34 828.15,852.02 770.55,894.44 C708.74,939.97 636.04,968.71 560.51,977.49 C553.36,978.32 545.33,979.00 542.67,979.00 L 537.82 979.00 L 543.66 973.42 L 549.50 967.84 L 564.50 965.88 C687.07,949.87 795.74,882.10 868.19,776.50 C913.38,710.64 939.84,636.95 949.00,551.50 C950.80,534.67 951.39,491.18 950.08,472.50 C945.28,404.35 928.84,343.73 899.64,286.50 C846.78,182.88 759.68,107.30 650.83,70.58 C590.85,50.35 526.09,44.30 458.50,52.60 C364.62,64.12 276.85,106.32 209.11,172.49 C132.29,247.51 86.10,343.52 73.51,454.33 C69.91,485.95 69.91,530.11 73.51,561.63 C81.99,636.02 108.17,707.77 149.34,769.50 C198.51,843.24 265.83,899.89 345.31,934.45 C378.56,948.90 420.22,960.69 455.37,965.60 L 466.34 967.13 L 471.60 972.47 C474.49,975.41 476.59,978.08 476.26,978.41 C475.47,979.20 472.41,979.02 460.47,977.48 ZM 567.00 919.49 C567.00,918.68 570.22,911.83 574.15,904.26 C591.37,871.11 590.25,873.71 590.77,865.68 L 591.25 858.24 L 595.37 857.02 C606.11,853.85 618.72,845.87 636.82,830.80 C651.93,818.21 660.32,812.44 687.56,795.94 C701.17,787.70 715.95,778.42 720.41,775.33 C760.61,747.40 789.52,712.90 814.44,663.11 C837.26,617.51 848.34,572.79 846.68,533.00 C845.49,504.61 842.93,494.43 822.04,435.04 C814.68,414.14 809.32,393.37 804.48,367.00 C800.25,343.96 798.26,335.84 793.44,321.88 C781.80,288.20 757.36,258.12 725.50,238.26 C708.19,227.47 690.31,219.74 656.00,208.21 C617.09,195.14 605.52,190.67 589.58,182.59 C570.28,172.80 558.09,164.13 544.50,150.52 C527.88,133.88 522.08,123.39 522.05,110.00 C522.04,101.99 524.23,96.81 529.71,91.87 C541.32,81.41 563.26,80.44 581.82,89.58 C593.59,95.37 623.35,119.09 621.32,121.06 C620.33,122.02 616.26,121.25 600.27,117.08 C592.52,115.06 586.30,114.00 583.27,114.19 C578.91,114.47 578.47,114.73 578.19,117.23 C577.26,125.27 609.66,145.50 637.50,154.26 C643.55,156.17 654.80,159.18 662.50,160.95 C670.20,162.72 682.35,165.52 689.50,167.16 C758.14,182.95 806.09,219.32 833.59,276.47 C844.59,299.32 849.76,317.63 854.48,350.50 C859.24,383.58 863.21,397.62 878.48,435.50 C896.81,480.94 902.18,504.36 902.31,539.50 C902.43,571.89 896.73,602.29 883.60,639.27 C862.55,698.60 832.72,747.87 796.89,782.51 C776.92,801.83 757.92,814.69 720.50,834.24 C689.23,850.57 679.17,857.13 656.08,876.26 C633.73,894.77 623.86,900.27 595.50,910.04 C585.60,913.45 576.27,916.87 574.76,917.64 C569.04,920.56 567.00,921.05 567.00,919.49 ZM 441.16 914.93 C438.77,913.87 431.57,911.16 425.16,908.91 C401.93,900.76 386.44,892.07 368.90,877.36 C342.21,854.96 334.08,849.56 298.00,830.23 C286.17,823.89 272.23,816.02 267.00,812.74 C237.45,794.16 211.27,769.66 190.89,741.50 C156.73,694.32 129.26,629.91 121.38,578.50 C118.81,561.74 118.78,526.96 121.33,511.50 C125.31,487.38 131.25,468.44 145.79,433.50 C160.66,397.74 164.52,384.52 169.99,350.50 C176.61,309.27 187.49,280.24 207.08,251.50 C237.16,207.36 279.61,180.54 341.50,166.59 C350.30,164.60 362.67,161.81 369.00,160.38 C400.78,153.18 428.54,140.39 443.33,126.15 C449.09,120.59 450.32,118.57 449.49,115.96 C448.56,113.04 442.70,113.41 426.41,117.44 C409.23,121.68 404.98,122.46 405.07,121.36 C405.18,120.01 421.33,106.11 430.34,99.61 C444.67,89.28 460.54,83.04 472.50,83.03 C477.82,83.03 488.13,85.52 492.92,87.96 C495.05,89.04 498.34,91.74 500.23,93.96 C518.97,115.85 490.36,156.91 438.00,183.24 C422.19,191.20 405.72,197.54 371.07,209.03 C338.97,219.67 324.25,225.75 308.00,235.05 C292.88,243.71 281.05,252.82 268.50,265.47 C255.12,278.95 245.97,291.60 238.10,307.50 C228.64,326.60 225.49,336.86 218.60,371.00 C213.79,394.86 208.45,413.18 198.85,438.83 C187.99,467.87 184.47,478.35 180.99,492.00 C169.34,537.83 174.69,588.51 196.46,638.50 C215.74,682.76 239.35,718.70 266.11,744.52 C284.26,762.03 296.80,771.19 331.45,792.30 C355.92,807.20 362.52,811.69 376.36,822.90 C398.01,840.43 408.28,847.89 416.56,852.09 L 424.76 856.25 L 425.19 864.42 C425.67,873.45 428.02,879.57 436.26,893.18 C440.49,900.15 448.00,914.98 448.00,916.35 C448.00,917.43 445.72,916.96 441.16,914.93 ZM 495.66 823.95 C493.00,823.51 486.70,821.44 481.66,819.36 C473.56,816.02 471.52,815.57 464.00,815.55 C457.27,815.53 454.48,815.99 450.63,817.76 L 445.76 820.00 L 435.75 810.77 C419.99,796.23 395.15,768.28 377.33,745.00 L 369.29 734.50 L 374.84 730.00 C389.94,717.77 396.90,709.40 401.77,697.63 C405.59,688.41 406.05,672.78 402.95,657.67 L 400.64 646.43 L 406.20 634.47 C411.64,622.76 416.13,610.17 417.52,602.73 C417.91,600.68 418.66,599.00 419.19,599.00 C419.73,599.00 422.06,600.56 424.39,602.46 C426.71,604.37 431.74,607.39 435.56,609.19 C441.54,612.00 443.55,612.45 450.05,612.41 L 457.61 612.36 L 459.79 620.80 C464.34,638.39 472.40,653.12 484.40,665.77 C501.76,684.08 521.37,694.79 563.00,708.70 C575.38,712.84 585.61,716.32 585.74,716.44 C585.88,716.56 581.70,734.62 576.45,756.58 C567.69,793.27 565.52,802.20 562.97,812.00 L 562.06 815.50 L 553.28 815.53 C545.56,815.57 543.41,816.01 535.50,819.19 C521.67,824.76 509.27,826.24 495.66,823.95 ZM 359.02 780.82 C358.98,771.78 356.83,768.83 342.20,757.75 C331.40,749.56 326.95,744.73 322.89,736.75 C314.94,721.10 319.36,706.79 336.17,693.85 C349.09,683.91 353.60,675.69 352.82,663.49 C352.43,657.33 350.27,652.14 341.26,635.62 C338.00,629.65 337.46,627.70 337.15,620.93 C336.85,614.30 337.16,612.33 339.24,607.81 C342.68,600.33 345.83,596.97 355.51,590.46 C371.85,579.48 376.76,573.36 382.52,556.80 L 385.61 547.89 L 389.47 557.20 C392.23,563.85 393.33,567.93 393.31,571.51 C393.25,583.27 386.66,595.42 375.79,603.79 C368.61,609.31 365.08,614.50 363.32,622.11 C361.40,630.42 362.78,636.61 368.65,646.12 C371.16,650.18 374.07,655.68 375.13,658.35 C381.20,673.69 376.81,688.55 362.85,699.95 C348.31,711.82 346.72,713.41 344.39,718.41 C339.32,729.31 342.13,738.38 353.80,748.76 C361.08,755.22 366.00,762.99 366.00,768.01 C366.00,771.93 363.26,780.16 361.02,783.00 L 359.04 785.50 L 359.02 780.82 ZM 296.53 721.46 C290.79,715.19 287.71,707.75 287.20,698.88 C286.60,688.55 288.48,683.58 296.08,675.41 C304.77,666.07 306.48,662.24 306.48,652.00 C306.48,641.98 305.27,638.82 296.04,624.81 C288.37,613.17 286.63,607.51 287.21,596.10 C288.04,579.76 295.65,569.71 314.95,559.48 C337.27,547.66 343.23,539.23 349.49,510.68 C354.04,489.92 368.27,474.20 389.07,466.96 C396.32,464.44 398.98,464.02 408.06,464.01 C417.42,464.00 420.89,464.57 438.56,468.99 C463.87,475.31 476.36,476.82 490.26,475.23 C498.77,474.25 517.48,470.15 525.50,467.49 C528.99,466.34 510.81,483.16 503.21,488.13 C491.28,495.91 486.34,497.46 473.50,497.44 C463.59,497.42 461.27,497.04 450.00,493.56 C429.07,487.10 415.44,487.42 400.00,494.74 C385.45,501.64 376.96,513.25 371.56,533.60 C365.87,555.04 357.94,565.17 339.17,574.96 C320.87,584.50 314.02,592.98 313.20,607.13 C312.67,616.30 313.97,620.79 320.41,631.96 C328.72,646.36 330.83,657.20 327.34,667.57 C325.99,671.60 323.56,674.59 314.00,684.00 C304.44,693.41 302.01,696.40 300.66,700.43 C298.61,706.51 298.51,716.89 300.45,721.53 C302.35,726.07 300.72,726.04 296.53,721.46 ZM 632.50 710.54 C622.12,708.90 602.80,704.15 583.23,698.44 C525.41,681.54 495.76,663.21 481.90,635.79 C477.99,628.05 474.68,617.80 471.55,603.72 C470.11,597.24 468.48,590.77 467.94,589.34 L 466.95 586.74 L 463.31 590.49 C456.31,597.70 449.72,598.70 440.29,593.99 C423.64,585.67 403.51,558.84 399.93,540.20 C398.53,532.91 399.20,523.15 401.47,517.73 C403.58,512.67 409.44,506.34 414.43,503.72 C417.65,502.02 420.28,501.57 427.00,501.56 C434.79,501.54 436.03,501.82 441.82,504.95 C449.06,508.85 452.96,513.08 456.80,521.19 C459.04,525.90 459.93,526.87 462.00,526.84 C463.38,526.82 467.20,527.79 470.50,529.00 C478.03,531.77 489.01,531.45 496.22,528.24 C502.80,525.31 510.25,518.00 515.73,509.08 C518.56,504.46 525.30,496.42 532.96,488.50 C542.95,478.18 546.40,473.85 549.70,467.50 L 553.86 459.50 L 572.68 454.12 C611.46,443.04 637.43,436.57 655.38,433.51 C665.86,431.73 685.04,431.61 689.99,433.31 C693.27,434.43 693.56,434.90 694.81,441.00 C695.53,444.58 697.90,454.84 700.07,463.82 C702.23,472.79 704.00,481.47 704.00,483.09 C704.00,485.32 702.54,487.62 698.06,492.43 C694.06,496.73 691.76,500.20 690.98,503.06 C689.73,507.71 688.29,502.31 706.40,560.84 C710.03,572.57 713.00,583.28 713.00,584.63 C713.00,588.11 708.78,592.00 705.02,592.00 C703.32,592.00 699.14,590.79 695.72,589.32 C687.46,585.76 679.64,585.62 671.69,588.89 C666.75,590.92 665.54,591.09 663.55,590.03 C661.03,588.68 659.00,585.08 659.00,581.95 C659.00,579.25 657.37,579.51 655.40,582.52 C653.34,585.65 653.96,593.20 656.50,596.00 C659.64,599.46 665.98,601.24 671.03,600.08 C673.49,599.51 677.36,599.04 679.63,599.02 L 683.77 599.00 L 683.26 605.33 C682.86,610.38 683.18,612.62 684.88,616.47 C687.82,623.12 686.79,624.14 679.15,622.15 C672.40,620.39 673.19,620.16 649.23,630.61 C639.69,634.78 636.39,636.64 637.48,637.25 C640.64,639.02 648.76,639.17 657.08,637.61 C667.15,635.72 669.22,635.66 674.30,637.07 C678.60,638.26 680.61,641.42 679.62,645.40 C678.69,649.07 675.64,650.28 665.61,650.92 L 656.73 651.50 L 660.48 656.00 C662.54,658.47 665.53,661.33 667.11,662.35 C668.94,663.52 670.00,665.05 670.00,666.52 C670.00,667.80 670.92,672.74 672.06,677.50 C673.83,684.98 673.95,686.92 672.95,691.83 C670.81,702.34 665.22,708.27 655.23,710.62 C648.36,712.24 643.15,712.22 632.50,710.54 ZM 579.91 605.31 C581.73,601.30 579.40,597.58 574.80,597.19 C571.75,596.94 570.83,597.34 569.39,599.52 C568.09,601.51 567.89,602.80 568.60,604.81 C570.57,610.40 577.44,610.71 579.91,605.31 ZM 454.17 569.35 C457.23,566.57 456.49,562.09 452.25,557.73 L 448.50 553.88 L 448.78 542.45 C449.12,528.57 447.32,523.22 440.23,516.97 C433.34,510.91 426.67,509.61 419.40,512.90 C412.15,516.20 408.81,525.35 411.05,535.80 C412.42,542.21 414.00,542.56 414.00,536.47 C414.00,521.19 429.08,514.72 436.28,526.90 L 438.05 529.89 L 433.68 531.82 C423.71,536.23 420.85,550.20 428.20,558.57 C432.17,563.10 445.61,570.96 449.42,570.98 C451.03,570.99 453.17,570.26 454.17,569.35 ZM 653.71 531.89 C661.37,528.19 664.32,520.77 661.06,513.39 L 658.94 508.61 L 661.39 506.16 C662.73,504.81 665.99,502.54 668.63,501.11 C671.28,499.67 674.43,497.03 675.63,495.23 C677.73,492.10 679.74,484.40 678.72,483.38 C678.45,483.12 676.54,484.05 674.48,485.45 C669.22,489.02 664.75,488.75 648.37,483.88 C635.56,480.07 633.55,479.74 622.00,479.63 C610.37,479.51 608.89,479.72 600.79,482.62 C592.05,485.75 579.05,492.75 579.02,494.36 C579.01,494.83 579.71,494.94 580.58,494.61 C581.45,494.27 586.47,493.10 591.74,492.00 C603.17,489.61 615.36,489.43 623.54,491.52 C631.04,493.44 642.09,498.04 641.50,499.00 C641.25,499.40 636.88,499.51 631.78,499.24 C618.77,498.57 606.45,501.32 585.73,509.53 C584.35,510.07 585.84,511.42 592.51,515.65 C610.23,526.89 619.90,531.34 631.50,533.58 C640.03,535.22 648.09,534.61 653.71,531.89 ZM 300.76 533.25 C294.87,520.81 292.33,514.33 293.06,513.61 C293.52,513.15 336.80,496.00 337.49,496.00 C337.72,496.00 337.24,497.56 336.45,499.48 C335.65,501.39 334.09,506.81 333.00,511.52 C329.65,525.85 324.45,533.87 313.89,540.92 C310.52,543.16 307.45,545.00 307.05,545.00 C306.65,545.00 303.82,539.71 300.76,533.25 ZM 286.51 496.65 C286.31,496.02 285.67,493.92 285.08,492.00 C283.09,485.45 279.95,466.53 279.32,457.25 L 278.70 448.00 L 307.24 448.00 L 335.78 448.00 L 336.22 462.75 C336.46,470.86 336.30,477.92 335.85,478.43 C334.20,480.32 286.86,497.81 286.51,496.65 ZM 362.00 456.74 C362.00,427.24 374.21,387.63 391.58,360.77 C413.51,326.87 447.68,304.57 491.94,295.30 C503.05,292.98 506.75,292.67 524.00,292.69 C541.14,292.70 545.03,293.02 556.10,295.33 C572.07,298.65 583.27,302.57 598.88,310.30 C607.46,314.55 610.84,316.69 609.88,317.26 C609.12,317.71 600.62,322.27 591.00,327.38 C556.59,345.65 527.71,364.28 488.44,393.50 C474.72,403.70 460.59,413.50 457.02,415.28 C450.59,418.48 450.40,418.50 432.02,419.04 C415.60,419.51 412.93,419.83 408.50,421.84 C399.00,426.14 393.19,433.98 392.10,443.94 L 391.50 449.39 L 386.00 451.03 C380.28,452.74 372.22,456.57 365.76,460.65 L 362.00 463.03 L 362.00 456.74 ZM 467.24 459.92 C463.80,459.39 452.32,456.77 441.74,454.08 C431.15,451.40 419.45,448.89 415.74,448.49 L 409.00 447.77 L 409.00 444.61 C409.00,440.67 411.08,437.60 414.71,436.19 C416.24,435.60 425.15,434.93 434.50,434.69 C458.84,434.09 462.15,432.71 490.63,411.29 C551.12,365.79 593.73,340.50 650.29,316.54 C666.05,309.87 669.44,309.05 672.16,311.25 C677.17,315.31 692.41,336.55 699.23,349.00 C706.00,361.36 705.14,363.07 696.25,354.95 C685.67,345.28 675.94,342.73 664.28,346.58 C642.47,353.80 586.30,380.92 549.80,401.88 C528.41,414.16 492.00,435.69 491.08,436.59 C486.60,441.02 523.29,425.98 578.08,400.92 C634.72,375.02 665.78,361.69 672.42,360.45 C677.33,359.53 682.30,362.27 690.58,370.48 C699.10,378.92 704.78,387.15 710.55,399.38 C717.30,413.70 719.21,423.12 716.97,431.17 C715.82,435.32 712.09,440.47 712.03,438.00 C711.93,434.19 709.62,428.63 706.79,425.41 C700.23,417.94 690.44,415.43 671.19,416.28 C651.48,417.15 628.25,422.36 572.00,438.53 C557.42,442.72 538.61,448.12 530.19,450.53 C498.71,459.56 481.53,462.13 467.24,459.92 ZM 278.90 430.57 C278.07,429.73 279.87,408.03 281.50,399.29 C284.38,383.89 285.14,381.00 286.33,381.00 C287.83,380.99 342.12,398.76 343.67,399.76 C344.54,400.32 344.23,402.97 342.47,410.01 C341.17,415.23 339.60,422.09 338.98,425.25 L 337.86 431.00 L 308.60 431.00 C292.50,431.00 279.14,430.80 278.90,430.57 ZM 321.51 374.84 C305.57,369.39 292.11,364.51 291.60,364.00 C289.43,361.83 308.05,320.39 311.09,320.60 C311.87,320.65 324.32,328.92 338.76,338.97 L 365.02 357.24 L 362.85 360.74 C361.66,362.67 358.39,368.86 355.59,374.50 L 350.50 384.76 L 321.51 374.84 ZM 358.92 332.82 C350.44,326.82 338.22,318.21 331.76,313.70 C325.30,309.19 320.01,305.08 320.01,304.56 C319.98,301.75 347.20,269.50 349.00,270.21 C349.54,270.43 384.77,313.37 391.27,321.75 C391.97,322.64 390.42,325.06 385.84,330.25 C382.32,334.24 378.29,338.90 376.89,340.62 L 374.34 343.74 L 358.92 332.82 ZM 400.25 306.26 C397.52,303.09 387.75,291.06 378.55,279.51 L 361.81 258.53 L 365.15 255.72 C375.05,247.44 401.46,232.01 402.97,233.63 C403.76,234.47 431.00,293.41 431.00,294.27 C431.00,294.50 427.29,297.00 422.75,299.82 C418.21,302.64 412.41,306.54 409.86,308.49 L 405.22 312.03 L 400.25 306.26 ZM 601.86 289.44 L 591.23 284.10 L 597.47 268.30 C600.90,259.61 605.80,247.10 608.36,240.50 C610.92,233.90 613.41,227.88 613.89,227.13 C614.58,226.05 617.44,227.14 627.63,232.39 C634.71,236.03 641.78,240.04 643.34,241.29 L 646.18 243.56 L 629.60 268.94 C620.48,282.90 612.90,294.43 612.76,294.56 C612.62,294.69 607.71,292.39 601.86,289.44 ZM 444.22 282.83 C443.15,280.45 437.90,268.83 432.55,257.00 C427.20,245.18 421.76,233.12 420.45,230.21 L 418.07 224.92 L 420.29 224.08 C421.50,223.61 426.27,221.77 430.87,219.99 C439.39,216.70 456.10,211.63 462.20,210.49 L 465.56 209.86 L 467.86 223.18 C477.00,276.00 477.05,276.35 475.77,277.17 C475.07,277.61 473.74,277.98 472.80,277.98 C471.38,278.00 453.39,284.09 447.83,286.45 C446.54,286.99 445.72,286.17 444.22,282.83 ZM 566.50 276.43 C563.75,275.67 557.67,274.52 553.00,273.88 C548.33,273.24 544.22,272.44 543.88,272.11 C543.53,271.77 543.63,268.12 544.08,264.00 C544.54,259.88 546.05,245.52 547.44,232.10 C548.83,218.68 550.19,207.48 550.46,207.20 C551.83,205.84 595.66,216.33 597.89,218.55 C598.37,219.03 595.80,226.18 587.51,247.50 C584.09,256.30 580.06,266.76 578.56,270.75 C575.50,278.85 575.40,278.90 566.50,276.43 ZM 493.51 271.70 C493.29,271.04 490.80,256.37 487.97,239.11 C483.91,214.27 483.11,207.55 484.12,206.93 C484.83,206.49 488.80,205.79 492.95,205.36 C501.41,204.50 531.56,204.22 532.33,205.00 C532.91,205.58 526.65,270.71 525.96,271.32 C525.71,271.54 518.39,271.99 509.70,272.31 C497.84,272.76 493.80,272.60 493.51,271.70 ZM 631.00 524.44 C624.61,522.79 606.50,513.97 606.50,512.51 C606.50,510.94 615.73,509.20 624.57,509.10 C638.63,508.93 649.82,512.06 652.81,517.00 C653.91,518.82 653.87,519.54 652.57,521.53 C649.74,525.85 641.00,527.03 631.00,524.44 Z" fill="rgb(252,251,251)"/>
</g>
</svg>