<?xml version="1.0" encoding="UTF-8"?>
<svg id="Ebene_2" data-name="Ebene 2" xmlns="http://www.w3.org/2000/svg" viewBox="0 0 1254 1254">
  <defs>
    <style>
      .cls-1 {
        fill: #fcfbfb;
      }

      .cls-2 {
        fill: #5e0712;
      }

      .cls-3 {
        fill: #fdfdfd;
      }
    </style>
  </defs>
  <g id="Ebene_1-2" data-name="Ebene 1">
    <g>
      <path class="cls-3" d="M0,1254V0h1254v1254H0ZM647.48,1166.16l1.72.64c.78.29,2.05-.1,1.87-.86l-6.64-26.93c-.27-1.95.78-2.95,2.43-3.36,10.02-2.54,18.5-7.78,25.42-15.91,163.18-15.5,310.32-111.07,393.07-252.32,57.42-96.98,80.18-210.9,66.83-322.82-8.74-73.23-32.81-143.46-69.68-207.03-8.94-15.42-18.25-29.27-28.67-43.67-29.88-41.26-66.07-77.12-106.99-107.67-49.34-36.84-104.78-64.14-164.14-80.64-47.43-13.19-95.67-20.27-145.01-18.77-154.58,4.68-295.11,74.48-390.23,196.63-39.45,50.67-68.5,108.5-87.13,169.88-16.12,53.1-23.44,107.15-22.6,162.68,2.12,139.33,59.79,269.98,160.96,365.27,82.49,77.7,187.68,126.7,300.5,138.21,7.52,9.44,17.71,14.59,29.35,17.15l-7.39,30.62c10.27-1.71,20.61-20.93,24.99-29.01,5.9,10.88,10.75,24,21.33,27.92Z"/>
      <g>
        <path class="cls-1" d="M552.52,1053.51c-49.31-9.29-95.46-25.12-140.1-45.76-28.55-13.2-55.01-28.87-79.39-48.73-42.01-34.21-76.3-76.23-102.18-123.76-17.52-32.18-29.68-66.24-35.56-102.49-5.46-33.59-3.45-66.79,4.78-99.66,4.07-16.23,8.97-30.97,14.29-46.77,9.13-27.13,14.34-54.39,15.27-83.34,1.97-61.69,26.62-119.53,70.53-162.87,25.88-25.54,61.32-49.32,95.22-61.85l48.02-17.75c29.22-10.8,72.86-27.21,93.35-50.63,1.69-1.93,2.42-4.73,1.49-6.59-4.56-9.11-45.21,7.63-57.92,3.87,12.9-13.22,25.85-24.45,40.66-34.11,23.16-15.1,53.17-24.48,77.74-7.88,20.82,14.06,15.76,37.21,3.13,55.64-22.31,32.55-55.24,54.34-90.9,70.38l-63.26,28.44c-27.8,12.5-53.32,27.9-77.19,46.91-27.9,22.22-50.31,49.73-63.88,82.82-8.82,21.5-13.17,43.56-15.2,66.71-2.51,28.63-7.81,55.46-16.27,82.86-4.8,15.55-9.32,30.07-13.29,45.81-8.49,33.64-8.54,67.46.49,101.12,18.92,70.59,63.65,132.37,126.26,170.56,45.75,27.91,86.78,43.4,137.72,60.55-3,11.94-.46,23.13,5.59,33.39,7.42,13.66,15.98,26.07,20.61,43.13Z"/>
        <path class="cls-1" d="M852.25,1002.35c-46.95,22.93-102.2,42.62-154.47,51.67,4.47-13.39,10.7-24.98,17.7-36.74,7.37-12.39,12.78-24.63,9.61-39.86,35.92-11.18,70.64-24.68,104.98-40.44s65.6-37.9,91.69-66.3c33.93-36.94,58.85-80.95,70.82-129.86,12-49.06,2.44-87.24-11.66-133.88-9.27-30.69-15.05-61.03-17.83-92.98-4.84-55.51-22.91-100.13-61.93-140.14-22.98-23.56-50.15-41.41-80.05-54.8-36.98-16.55-68.66-21-103.49-40.42-22.42-12.5-42.38-27.65-58.51-47.52-6.83-8.42-12.46-16.87-16.23-26.85-5.65-14.96-1.13-30.44,12.26-39.46,22.6-15.23,51.17-7.62,73.23,5.99,16.46,10.16,31.23,22.22,44.95,36.59-11.92,1.09-21.99-2.18-32.72-3.96-5.74-.95-22.38-6.14-25.16-.38-1,2.08-.4,4.67,1.11,6.52,16.15,19.73,47.34,32.99,71.65,40.34,31.02,9.38,60.64,20.2,89.85,34.38,29.41,14.27,55.59,33,78.44,56.23,42.24,42.94,65.82,99.35,67.83,159.53.96,28.92,5.53,56.07,14.25,83.35,5.17,16.16,10.32,31.26,14.47,47.69,6.91,27.41,10.03,54.74,7.29,83.07-3.68,37.95-14.25,74.17-31.23,108.28-24.1,48.42-56.97,91.37-97.4,127.24-24.14,21.42-50.48,38.57-79.45,52.71Z"/>
        <path class="cls-1" d="M529.96,134.92c-178.13,37.07-316.89,176.16-360.45,351.54-5.45,21.93-9.87,42.76-12.07,65.21-3.44,35.08-4.51,69.82-1.1,105.19,8.16,84.71,38.99,165.89,88.91,234.79,73.91,102.02,192.33,174.37,317.54,191.56,1.72,4.66,3.2,8.65,4.27,14.06-103.9-13.47-204.77-63.37-279.34-135.92s-123.72-164.68-141.46-266.56c-25.47-146.22,14.59-299.43,110.42-413.25,101.33-120.36,253.07-183.54,410.47-171.41,77.02,5.94,151.87,31.54,217.01,72.67,61.93,39.11,113.73,91.51,152.55,153.3,55.06,87.62,81.78,189.46,77.58,292.89-3.69,90.89-31.77,178.34-82.6,253.77-79.53,118.03-205.33,196.28-346.76,214.77.61-5.31,2.26-9.36,3.7-13.97,90.24-12.59,173.86-50.79,243.16-109.64,102.14-86.73,162.94-213.89,167.3-347.96,3.38-104.13-25.16-206.27-83.25-293-69.47-103.73-178.06-177.07-301.4-200.53-60.74-11.55-123.93-10.12-184.47,2.48Z"/>
        <g>
          <path class="cls-2" d="M647.48,1166.16c-10.58-3.92-15.43-17.04-21.33-27.92-4.38,8.08-14.72,27.3-24.99,29.01l7.39-30.62c-11.64-2.56-21.83-7.71-29.35-17.15-112.83-11.51-218.02-60.52-300.5-138.21-101.17-95.29-158.85-225.95-160.96-365.27-.84-55.53,6.47-109.58,22.6-162.68,18.64-61.38,47.68-119.21,87.13-169.88,95.12-122.15,235.65-191.95,390.23-196.63,49.34-1.49,97.58,5.58,145.01,18.77,59.36,16.51,114.8,43.8,164.14,80.64,40.92,30.55,77.11,66.41,106.99,107.67,10.42,14.39,19.73,28.25,28.67,43.67,36.87,63.56,60.94,133.8,69.68,207.03,13.36,111.92-9.41,225.84-66.83,322.82-82.76,141.25-229.9,236.83-393.07,252.32-6.92,8.14-15.4,13.37-25.42,15.91-1.65.42-2.7,1.41-2.43,3.36l6.64,26.93c.19.77-1.08,1.15-1.87.86l-1.72-.64ZM529.96,134.92c60.54-12.6,123.73-14.03,184.47-2.48,123.34,23.46,231.93,96.8,301.4,200.53,58.09,86.72,86.63,188.87,83.25,293-4.35,134.06-65.15,261.23-167.3,347.96-69.31,58.85-152.92,97.05-243.16,109.64-1.44,4.61-3.08,8.66-3.7,13.97,141.44-18.49,267.24-96.74,346.76-214.77,50.83-75.43,78.91-162.88,82.6-253.77,4.2-103.43-22.52-205.27-77.58-292.89-38.82-61.78-90.62-114.18-152.55-153.3-65.13-41.14-139.99-66.74-217.01-72.67-157.4-12.13-309.14,51.05-410.47,171.41-95.83,113.83-135.89,267.03-110.42,413.25,17.75,101.88,67.53,194.63,141.46,266.56,74.56,72.54,175.44,122.45,279.34,135.92-1.08-5.41-2.55-9.4-4.27-14.06-125.21-17.19-243.63-89.54-317.54-191.56-49.92-68.91-80.75-150.09-88.91-234.79-3.41-35.37-2.33-70.11,1.1-105.19,2.2-22.45,6.62-43.28,12.07-65.21,43.56-175.38,182.32-314.47,360.45-351.54ZM552.52,1053.51c-4.63-17.06-13.19-29.46-20.61-43.13-6.05-10.26-8.59-21.46-5.59-33.39-50.94-17.15-91.97-32.64-137.72-60.55-62.61-38.19-107.34-99.97-126.26-170.56-9.02-33.66-8.97-67.48-.49-101.12,3.97-15.74,8.49-30.26,13.29-45.81,8.46-27.4,13.76-54.23,16.27-82.86,2.03-23.16,6.38-45.21,15.2-66.71,13.58-33.09,35.98-60.6,63.88-82.82,23.87-19.01,49.38-34.4,77.19-46.91l63.26-28.44c35.66-16.04,68.59-37.83,90.9-70.38,12.63-18.43,17.68-41.58-3.13-55.64-24.57-16.6-54.58-7.22-77.74,7.88-14.81,9.66-27.76,20.89-40.66,34.11,12.7,3.76,53.36-12.98,57.92-3.87.93,1.86.2,4.66-1.49,6.59-20.5,23.42-64.13,39.83-93.35,50.63l-48.02,17.75c-33.9,12.53-69.35,36.31-95.22,61.85-43.9,43.33-68.56,101.18-70.53,162.87-.92,28.96-6.13,56.21-15.27,83.34-5.32,15.8-10.22,30.54-14.29,46.77-8.24,32.87-10.24,66.06-4.78,99.66,5.89,36.25,18.04,70.3,35.56,102.49,25.88,47.53,60.17,89.55,102.18,123.76,24.39,19.86,50.85,35.53,79.39,48.73,44.64,20.64,90.79,36.47,140.1,45.76ZM852.25,1002.35c28.97-14.15,55.3-31.29,79.45-52.71,40.43-35.86,73.3-78.82,97.4-127.24,16.98-34.12,27.55-70.33,31.23-108.28,2.74-28.33-.37-55.67-7.29-83.07-4.15-16.44-9.3-31.54-14.47-47.69-8.72-27.27-13.29-54.43-14.25-83.35-2.01-60.18-25.59-116.59-67.83-159.53-22.85-23.23-49.03-41.96-78.44-56.23-29.21-14.18-58.83-25-89.85-34.38-24.31-7.35-55.5-20.61-71.65-40.34-1.51-1.85-2.11-4.44-1.11-6.52,2.78-5.76,19.41-.57,25.16.38,10.73,1.78,20.8,5.04,32.72,3.96-13.72-14.37-28.48-26.43-44.95-36.59-22.06-13.61-50.63-21.23-73.23-5.99-13.39,9.02-17.9,24.5-12.26,39.46,3.77,9.98,9.4,18.44,16.23,26.85,16.13,19.87,36.1,35.02,58.51,47.52,34.82,19.42,66.51,23.87,103.49,40.42,29.91,13.38,57.08,31.24,80.05,54.8,39.02,40.01,57.08,84.63,61.93,140.14,2.79,31.96,8.56,62.29,17.83,92.98,14.1,46.65,23.66,84.82,11.66,133.88-11.96,48.91-36.88,92.92-70.82,129.86-26.09,28.4-56.63,50.21-91.69,66.3s-69.05,29.26-104.98,40.44c3.17,15.23-2.24,27.47-9.61,39.86s-13.23,23.35-17.7,36.74c52.27-9.05,107.52-28.74,154.47-51.67ZM650.23,379.8l9.65-77.74c-20.37-2.13-40.29-2.29-60.53.33l12.1,79.38c13.07-1.77,25.33-2.32,38.78-1.96ZM592.55,385.33l-13.34-80.16c-19.99,3.31-38.62,8.65-57.08,16.3l32.35,76.93c13-5.55,24.98-9.6,38.07-13.07ZM708.15,390.06l29.24-68.76c-18.54-7.78-37.86-13.51-57.73-16.6l-9.89,76.97c13.52,1.6,25.5,4.54,38.38,8.4ZM537.58,406.77l-33.83-77.49c-19.35,9.18-36.04,19.64-51.9,32.51l52.07,67.87c11.02-8.57,21.77-15.59,33.66-22.89ZM758.48,404.73l32.02-54.69c-11.37-7.62-22.36-14.12-35.2-20.24l-28.88,67.4,22.98,11.79c3.26-1.09,5.97-2.58,9.08-4.26ZM489.84,442.52l-53.9-67.48c-14.98,14.04-28.26,28.63-39.24,45.42l68.43,49.99c7.8-9.99,15.57-18.94,24.71-27.93ZM507.49,543.93c21.69-2.88,36.28,6.93,60.98-10.5,13.97-9.86,26.42-20.3,39.76-31.29,35.91-29.59,73.14-55.82,114.6-78.78-52.31-24.63-112.15-25.33-162.87.76-64.54,33.76-102.63,93.46-106.27,167.01,7.61-3.16,14.16-5.88,21.62-7.8-1.19-20.15,11.99-36.72,32.17-39.4ZM867.09,574.46c20.7-18.7-5.49-63.21-18.38-80.08-5.39-7.06-11.91-13.01-19.58-17.18-4.89-2.66-10.42-1.12-15.36.73-30.04,11.21-58.44,24.18-87.88,37.09-39.28,17.22-77.11,35.1-118.97,50.35,34.93-23.46,71.43-44.34,109.07-64.34,31.15-16.55,62.2-31.11,94.72-44.09,21.12-8.43,33.81,5.29,49.18,18.61.48-6.3-1.97-10.91-4.38-15.99-8.13-17.08-19.07-32.27-31.74-46.19-3.83-4.21-8.97-4.85-14.27-2.86-29.95,11.26-58.27,24.87-86.24,40.85-45.88,26.2-88.81,55.87-129.97,88.71-7.09,5.66-13.72,10.36-21.32,14.99-27.45,16.74-46.8,5.96-63.52,9.3-8.16,1.63-13.96,7.82-12.89,16.45,11.41-.41,22.19.96,33.07,4.48,26.97,8.72,56.49,17.06,85.08,9.2l140.99-38.79c31-8.53,103.63-28.67,112.39,18.77ZM437.1,522.6c5.4-13.4,10.76-24.12,17.41-35.81l-69.8-47.83c-10.46,19.5-18.98,38.83-24.28,59.52l76.67,24.13ZM424.1,582.25c1-14.91,3.54-27.04,6.85-40.53l-76.13-22.85c-3.84,22.31-6.25,44.1-5.53,66.26l74.81-2.88ZM801.1,839.39c9.8-.21,28.72,3.52,32.06-5.81.97-2.73.18-6.05-2.15-8.63-11.27-12.47-37.9,5.85-56.49-.19l38.38-19.71c16.55-8.5,23.9,3.87,26.54-1.03,2.82-5.23-9.49-11.51-2.42-28.62-10.21-6.95-22.23,8.72-34.96-4.41-6.49-6.69-5.16-17.19,2.4-22.09.03,6.91,1.05,13.66,7.76,15.44,7.54,2,16.09-11.99,35.81-2.38,7.16,3.49,16.99,7.48,22.85.3,2.36-2.9,2.76-6.56,1.48-10.56l-28.42-88.45c-2.78-8.64,2.61-17.56,9.67-22.45,5.54-3.83,8.11-8.61,6.19-15.56-5.1-18.49-10.28-36.63-14.09-55.64-10.22-4.69-20.71-5.85-31.76-4.88-17.66,1.56-34.45,4.71-51.58,9.51l-83.77,23.47c-3.51,11.03-8.84,20.7-17.27,28.62l-20.09,18.89c-5.02,5.79-8.32,12.22-12.2,18.76-12.83,21.6-38.85,31.05-61.64,19.92-3.47-1.69-6.44-2.98-10.84-.43-3.16-13.29-11.72-22.96-23.51-29.31-18.67-10.05-41.33-2.39-49.23,17.55-10.99,27.75,7.52,59.21,26.08,79.39,7.07,7.37,14.22,14.31,23.39,18.55,11.4,5.28,23.4,1.66,30.53-8.99,9.34,47.09,20.77,80.02,62.03,106.47,39.58,25.44,100.36,42.29,146.48,50.47,18.93,3.36,41.77,2.88,49.79-17.58,6.85-17.46-2.31-25.88-2.24-42.3-8.29-3.56-14.3-10.56-18.76-18.32ZM387.05,800.3c-8.96-15.48-7.43-33.15,3.72-46.65,6.77-8.2,15.48-13.83,25.11-18.44,19.05-9.13,31.78-24.94,35.93-45.65,2.18-10.86,6.07-21.11,12.74-29.94,16.16-21.4,43.52-30.57,69.21-23.52l28.24,7.76c31.67,8.7,63.62-12.03,82.27-37.02-9.8,1.79-17.75,4.6-26.7,6.75-23.22,5.58-46.34,4.98-69.19-2.23l-30.96-8.7c-32.48-9.13-67.14,6.54-83.57,36.32-17.15,31.09-1.58,52.42-48.09,77.89-9.42,5.16-18.15,11.49-24.62,19.99-14.43,18.93-15.19,43.33-2.11,62.9,4.03,6.03,7.88,11.76,11.01,18.17,6.48,13.27,5.11,28.54-4.87,39.27l-8.16,8.78c5.21,5.29,10.17,9.76,16.16,14.51,4.23-4.96,8.58-8.95,13.48-12.82,14.32-11.34,19.26-29.41,11.91-46.35-3.14-7.24-7.28-13.73-11.5-21.02ZM409.2,650.01c2.97-12.33,7.65-22.61,15.03-31.99l-1.02-16.47-72.4,4.08c2.17,21.99,6.31,42.38,12.58,62.38l45.81-17.99ZM425.63,913.85c5.72-5.48,10.72-8.95,15.97-13.36,11.55-9.71,19.34-23.01,19.34-38.48,0-12.32-5.28-22.96-12.29-32.54-11.26-15.39-11.66-35.88,2.06-48.83l12.03-11.36c7.4-6.99,16.1-18.04,14.91-29.23-.99-9.33-7.81-17.27-10.48-26.98-4.6,15.38-11.51,27.33-24.05,36.01l-13.63,9.44c-19.58,13.56-25.3,38.58-12.74,58.81,3.83,6.18,7.3,12.16,10.21,18.76,7.17,16.26,3.62,33.49-9.12,45.91-5.8,5.65-12.62,9.49-18.83,16.28,8.78,6.2,17.65,10.81,26.63,15.56ZM662.63,931.97c12.49-5.79,26.25-5.44,38.35,1.42,1.71-3.9,2.8-7.8,3.02-11.85-27.8-8.28-54.08-17.63-79.26-31.22-40.21-21.7-63.39-52.85-72.19-98.36-20.25,3.96-32.43-3.44-47.54-16.56-2.66,19.18-7.64,36.09-15.85,52.64-2.09,4.21-3.72,9.1-2.55,13.54l4.77,18.19c4.28,16.33,2.46,33.09-5.17,48.15-4.76,9.5-11.04,17.01-19.1,25.53,21.57,9.11,42.54,17.08,64.38,23.51,5.01-10.55,11.02-19.99,21.19-25.09,12.15-6.08,26.27-4.75,38.41,1.11,23.49,11.32,48.35,9.74,71.55-1.03ZM645.58,1159.7l-6.33-37.22c14.52-3.12,25.68-12.49,30.03-26.37l9.02-28.8c6.75-21.56,16.1-41.24,27.48-60.58,10.66-18.12,3.99-36.58-7.05-52.52-7.12-10.27-19.91-13.22-31.4-7.62-13.24,6.46-26.53,9.07-41.33,9.09s-27.62-2.24-40.89-8.74c-9.74-4.77-21.82-4.28-29.28,3.85-6.97,7.59-11.21,16.95-14.21,26.7-3.26,10.59-1.01,20.72,4.57,30.22,10.71,18.26,19.54,36.69,26.21,56.89l10.19,30.83c4.75,14.38,15.91,24.27,30.73,27.19l-6.28,36.67c14.56-18.59,15.36-35.85,19.37-58.79,3.55,20.88,3.68,42.97,19.18,59.21Z"/>
          <path class="cls-1" d="M867.09,574.46c-8.76-47.44-81.39-27.3-112.39-18.77l-140.99,38.79c-28.6,7.87-58.12-.48-85.08-9.2-10.88-3.52-21.66-4.89-33.07-4.48-1.06-8.63,4.74-14.82,12.89-16.45,16.71-3.34,36.07,7.44,63.52-9.3,7.6-4.63,14.23-9.33,21.32-14.99,41.16-32.84,84.09-62.51,129.97-88.71,27.97-15.98,56.29-29.59,86.24-40.85,5.3-1.99,10.44-1.35,14.27,2.86,12.68,13.92,23.61,29.11,31.74,46.19,2.42,5.08,4.86,9.69,4.38,15.99-15.37-13.31-28.06-27.04-49.18-18.61-32.53,12.98-63.57,27.54-94.72,44.09-37.64,20-74.13,40.88-109.07,64.34,41.86-15.25,79.69-33.13,118.97-50.35,29.44-12.9,57.84-25.88,87.88-37.09,4.95-1.85,10.47-3.39,15.36-.73,7.67,4.17,14.18,10.12,19.58,17.18,12.89,16.86,39.08,61.38,18.38,80.08Z"/>
          <path class="cls-1" d="M507.49,543.93c-20.18,2.68-33.37,19.26-32.17,39.4-7.46,1.92-14.01,4.65-21.62,7.8,3.64-73.56,41.73-133.25,106.27-167.01,50.71-26.09,110.56-25.39,162.87-.76-41.46,22.96-78.69,49.19-114.6,78.78-13.34,11-25.79,21.43-39.76,31.29-24.7,17.43-39.29,7.62-60.98,10.5Z"/>
          <path class="cls-1" d="M662.63,931.97c-23.2,10.77-48.06,12.35-71.55,1.03-12.15-5.86-26.27-7.19-38.41-1.11-10.17,5.09-16.18,14.53-21.19,25.09-21.84-6.43-42.8-14.4-64.38-23.51,8.06-8.52,14.34-16.03,19.1-25.53,7.62-15.06,9.45-31.82,5.17-48.15l-4.77-18.19c-1.16-4.44.46-9.33,2.55-13.54,8.22-16.56,13.19-33.47,15.85-52.64,15.11,13.11,27.3,20.52,47.54,16.56,8.8,45.51,31.98,76.66,72.19,98.36,25.18,13.59,51.46,22.93,79.26,31.22-.22,4.05-1.31,7.95-3.02,11.85-12.1-6.86-25.86-7.22-38.35-1.42Z"/>
          <path class="cls-1" d="M387.05,800.3c4.22,7.29,8.36,13.77,11.5,21.02,7.35,16.93,2.4,35.01-11.91,46.35-4.89,3.88-9.25,7.86-13.48,12.82-5.99-4.74-10.95-9.22-16.16-14.51l8.16-8.78c9.98-10.73,11.35-26,4.87-39.27-3.13-6.41-6.98-12.14-11.01-18.17-13.08-19.57-12.32-43.96,2.11-62.9,6.48-8.5,15.21-14.83,24.62-19.99,46.52-25.47,30.94-46.8,48.09-77.89,16.43-29.79,51.1-45.45,83.57-36.32l30.96,8.7c22.85,7.21,45.97,7.8,69.19,2.23,8.95-2.15,16.9-4.96,26.7-6.75-18.65,24.98-50.6,45.72-82.27,37.02l-28.24-7.76c-25.68-7.06-53.05,2.12-69.21,23.52-6.66,8.82-10.56,19.07-12.74,29.94-4.16,20.7-16.88,36.52-35.93,45.65-9.64,4.62-18.34,10.24-25.11,18.44-11.15,13.5-12.69,31.17-3.72,46.65Z"/>
          <path class="cls-1" d="M425.63,913.85c-8.97-4.75-17.85-9.36-26.63-15.56,6.22-6.79,13.03-10.63,18.83-16.28,12.74-12.42,16.29-29.64,9.12-45.91-2.91-6.6-6.37-12.58-10.21-18.76-12.56-20.23-6.85-45.25,12.74-58.81l13.63-9.44c12.54-8.69,19.45-20.63,24.05-36.01,2.67,9.71,9.49,17.65,10.48,26.98,1.19,11.19-7.51,22.25-14.91,29.23l-12.03,11.36c-13.72,12.95-13.32,33.44-2.06,48.83,7.01,9.58,12.29,20.21,12.29,32.54,0,15.46-7.79,28.76-19.34,38.48-5.25,4.41-10.25,7.88-15.97,13.36Z"/>
          <path class="cls-1" d="M537.58,406.77c-11.89,7.3-22.64,14.33-33.66,22.89l-52.07-67.87c15.86-12.86,32.55-23.32,51.9-32.51l33.83,77.49Z"/>
          <path class="cls-1" d="M437.1,522.6l-76.67-24.13c5.29-20.69,13.81-40.02,24.28-59.52l69.8,47.83c-6.65,11.69-12,22.41-17.41,35.81Z"/>
          <path class="cls-1" d="M489.84,442.52c-9.14,8.99-16.91,17.94-24.71,27.93l-68.43-49.99c10.98-16.79,24.26-31.39,39.24-45.42l53.9,67.48Z"/>
          <path class="cls-1" d="M424.1,582.25l-74.81,2.88c-.72-22.16,1.69-43.95,5.53-66.26l76.13,22.85c-3.32,13.49-5.86,25.62-6.85,40.53Z"/>
          <path class="cls-1" d="M592.55,385.33c-13.08,3.47-25.07,7.52-38.07,13.07l-32.35-76.93c18.47-7.66,37.09-12.99,57.08-16.3l13.34,80.16Z"/>
          <path class="cls-1" d="M650.23,379.8c-13.45-.36-25.71.19-38.78,1.96l-12.1-79.38c20.25-2.62,40.16-2.46,60.53-.33l-9.65,77.74Z"/>
          <path class="cls-1" d="M708.15,390.06c-12.88-3.86-24.87-6.8-38.38-8.4l9.89-76.97c19.87,3.09,39.19,8.83,57.73,16.6l-29.24,68.76Z"/>
          <path class="cls-1" d="M409.2,650.01l-45.81,17.99c-6.27-20-10.41-40.39-12.58-62.38l72.4-4.08,1.02,16.47c-7.38,9.39-12.06,19.66-15.03,31.99Z"/>
          <path class="cls-1" d="M758.48,404.73c-3.11,1.68-5.82,3.17-9.08,4.26l-22.98-11.79,28.88-67.4c12.83,6.12,23.82,12.62,35.2,20.24l-32.02,54.69Z"/>
          <g>
            <path class="cls-1" d="M801.1,839.39c4.46,7.75,10.47,14.75,18.76,18.32-.06,16.42,9.09,24.84,2.24,42.3-8.02,20.46-30.87,20.94-49.79,17.58-46.11-8.18-106.89-25.04-146.48-50.47-41.26-26.45-52.7-59.38-62.03-106.47-7.14,10.65-19.13,14.26-30.53,8.99-9.17-4.24-16.32-11.18-23.39-18.55-18.56-20.18-37.08-51.64-26.08-79.39,7.9-19.94,30.56-27.61,49.23-17.55,11.79,6.35,20.35,16.02,23.51,29.31,4.4-2.54,7.37-1.26,10.84.43,22.79,11.13,48.81,1.68,61.64-19.92,3.89-6.54,7.18-12.97,12.2-18.76l20.09-18.89c8.42-7.92,13.75-17.59,17.27-28.62l83.77-23.47c17.13-4.8,33.92-7.95,51.58-9.51,11.06-.98,21.55.18,31.76,4.88,3.81,19.01,8.98,37.15,14.09,55.64,1.92,6.95-.65,11.73-6.19,15.56-7.06,4.88-12.44,13.81-9.67,22.45l28.42,88.45c1.28,3.99.89,7.66-1.48,10.56-5.86,7.18-15.69,3.19-22.85-.3-19.72-9.61-28.27,4.38-35.81,2.38-6.71-1.78-7.72-8.53-7.76-15.44-7.55,4.91-8.89,15.4-2.4,22.09,12.73,13.13,24.74-2.54,34.96,4.41-7.07,17.11,5.24,23.39,2.42,28.62-2.64,4.89-9.98-7.48-26.54,1.03l-38.38,19.71c18.6,6.05,45.22-12.28,56.49.19,2.33,2.58,3.12,5.9,2.15,8.63-3.33,9.34-22.25,5.61-32.06,5.81ZM802.1,687.12c7.51-6.48,5.68-16.82.93-24.51,4.68-14.68,25.19-6.3,23.83-32.04-6.81,5.44-14.71,6.81-22.82,4.43l-24.65-7.26c-24.64-7.25-48.95-1.23-69.35,13.92,27.61-2.61,47.03-10.56,72.71,7.5-29.26-3.28-43.83,2.69-69.85,12.91,10.89,7.53,21.08,14.33,32.41,20.44,15.36,8.28,42.29,17.13,56.79,4.62ZM521.02,726.74c6.25,4.4,12.77,8.2,19.66,11.18,3.98,1.73,8.91-.4,10.41-3.23,2-3.77.94-7.96-2.27-10.45-12.78-9.89-3.81-21.96-5.09-31.28-1.55-11.34-8.17-20.9-17.74-26.72-9.8-5.96-21.9-3.22-27.68,6.96-4.93,8.67-4.08,19.26.29,28.01.34-7.81,1.03-14.9,5.61-20.81s11.77-7.51,17.61-3.25c3.4,2.48,6.12,5.55,7.51,9.66-9.6,2.29-15.02,9.45-16.63,17.36-1.75,8.59,1.14,17.51,8.33,22.56ZM708.98,779.72c0-4.51-3.65-8.16-8.16-8.16s-8.16,3.65-8.16,8.16,3.65,8.16,8.16,8.16,8.16-3.65,8.16-8.16Z"/>
            <path class="cls-2" d="M521.02,726.74c-7.18-5.05-10.08-13.97-8.33-22.56,1.61-7.91,7.03-15.07,16.63-17.36-1.39-4.1-4.12-7.18-7.51-9.66-5.84-4.26-13.23-2.38-17.61,3.25s-5.27,13-5.61,20.81c-4.36-8.75-5.21-19.34-.29-28.01,5.78-10.18,17.88-12.92,27.68-6.96,9.57,5.82,16.18,15.38,17.74,26.72,1.28,9.32-7.69,21.39,5.09,31.28,3.22,2.49,4.27,6.68,2.27,10.45-1.5,2.83-6.42,4.95-10.41,3.23-6.89-2.99-13.41-6.79-19.66-11.18Z"/>
            <circle class="cls-2" cx="701" cy="780" r="8"/>
            <g>
              <path class="cls-2" d="M802.1,687.12c-14.5,12.52-41.43,3.66-56.79-4.62-11.33-6.11-21.52-12.91-32.41-20.44,26.02-10.21,40.59-16.18,69.85-12.91-25.68-18.07-45.1-10.12-72.71-7.5,20.4-15.14,44.71-21.17,69.35-13.92l24.65,7.26c8.11,2.39,16.01,1.02,22.82-4.43,1.36,25.75-19.16,17.36-23.83,32.04,4.75,7.69,6.58,18.03-.93,24.51ZM795.92,675.28c.61-4.14-2.26-6.95-5.61-8.57-14.99-7.29-32.13-7.17-48.69-1.37,10.98,8.93,42.32,23.64,54.3,9.94Z"/>
              <path class="cls-1" d="M795.92,675.28c-11.98,13.7-43.32-1.01-54.3-9.94,16.56-5.8,33.7-5.92,48.69,1.37,3.34,1.63,6.22,4.43,5.61,8.57Z"/>
            </g>
          </g>
        </g>
        <g>
          <path class="cls-1" d="M645.58,1159.7c-15.5-16.24-15.63-38.33-19.18-59.21-4.01,22.95-4.81,40.2-19.37,58.79l6.28-36.67c-14.82-2.93-25.97-12.82-30.73-27.19l-10.19-30.83c-6.68-20.2-15.5-38.63-26.21-56.89-5.57-9.5-7.82-19.63-4.57-30.22,3-9.75,7.24-19.11,14.21-26.7,7.47-8.13,19.55-8.62,29.28-3.85,13.27,6.5,26.22,8.76,40.89,8.74s28.08-2.63,41.33-9.09c11.48-5.6,24.28-2.65,31.4,7.62,11.04,15.93,17.71,34.4,7.05,52.52-11.38,19.34-20.73,39.03-27.48,60.58l-9.02,28.8c-4.34,13.88-15.51,23.25-30.03,26.37l6.33,37.22ZM589.78,983.93c-6.38-7.04-11.83-12.99-19.06-19.04-1.37,7.38-3.4,15.77,4.54,20.3,4.54,2.59,10.21,2.14,14.52-1.26ZM674.98,986.1c9.98-3.72,7.13-14.56,6.23-21.38-7.48,6.06-13.1,12.09-19.34,19.4,3.89,1.93,8.48,3.71,13.11,1.99ZM638.17,1110.53c12-1.84,19.08-9.79,22.31-20.11l9.06-28.88c5.46-17.4,12.91-32.96,22.17-49.7-9.08,3.71-16.35,7.06-25.79,7.28-2.2,10.31-6.23,19.59-13.81,27.3,1.18-10.01,1.11-18.71-.55-28.03-17.12-5.77-34.84-5.86-51.4.42-2.34,9.7-1.75,18.32-.57,28.19-7.29-7.82-11.06-17.37-14-27.89-9.27-.21-17.03-3.13-25.96-7.46,10.69,19.59,18.72,38.5,25.54,58.98,3.33,9.99,5.7,20.04,10.85,29.26,3.7,6.61,11.79,9.65,18.51,11.1,5.73-19.08-16.56-47.05,3.04-57.73,5.06,8.3,6.05,17.5,8.89,26.93,2.24-9.14,4.14-18.4,8.28-27.49,19.41,13.67-1.19,37.63,3.43,57.83Z"/>
          <path class="cls-2" d="M638.17,1110.53c-4.62-20.2,15.98-44.16-3.43-57.83-4.14,9.08-6.04,18.34-8.28,27.49-2.84-9.43-3.83-18.62-8.89-26.93-19.6,10.68,2.69,38.65-3.04,57.73-6.72-1.45-14.81-4.48-18.51-11.1-5.15-9.22-7.53-19.27-10.85-29.26-6.82-20.48-14.84-39.39-25.54-58.98,8.93,4.34,16.69,7.25,25.96,7.46,2.94,10.52,6.71,20.07,14,27.89-1.18-9.86-1.77-18.49.57-28.19,16.56-6.28,34.28-6.19,51.4-.42,1.67,9.32,1.74,18.02.55,28.03,7.58-7.71,11.61-16.99,13.81-27.3,9.45-.22,16.71-3.57,25.79-7.28-9.26,16.74-16.72,32.31-22.17,49.7l-9.06,28.88c-3.24,10.32-10.31,18.27-22.31,20.11Z"/>
          <path class="cls-2" d="M589.78,983.93c-4.31,3.41-9.98,3.86-14.52,1.26-7.93-4.53-5.91-12.92-4.54-20.3,7.23,6.05,12.68,11.99,19.06,19.04Z"/>
          <path class="cls-2" d="M674.98,986.1c-4.62,1.72-9.22-.05-13.11-1.99,6.24-7.31,11.86-13.34,19.34-19.4.9,6.82,3.75,17.66-6.23,21.38Z"/>
        </g>
      </g>
    </g>
  </g>
</svg>