<?xml version="1.0" encoding="UTF-8"?>
<svg xmlns="http://www.w3.org/2000/svg" viewBox="0 0 1221 1221" baseProfile="tiny-ps" version="1.2">
  <title>Responda</title>
  <g transform="translate(27.665, 0)">
    <path fill="#610913" d="M568.09,1209.62c-4.03,5.21-7.88,9.14-13.59,11.41-.41-4.23,2.02-7.03,2.35-11.71-134.35-7.08-260.79-62.96-359.1-154.54-58.04-54.07-105.33-118.28-138.92-190.17-16.7-35.74-30.19-72.61-39.98-110.88-23.77-92.92-24.65-189.71-4.96-283.48,8.28-39.44,20.6-77.38,36.6-114.32,41.42-95.69,107.23-179.6,191.07-241.85,56.17-41.71,119.5-72.83,186.73-92.14C485.65,5.45,544.92-1.43,604.46.25c125.39,3.53,245.15,48.76,342.2,127.83,52.71,42.95,97.26,95.01,132.29,153.5,102.23,170.74,114.38,387.6,34.82,569.8-39.79,91.12-101.32,171.53-178.89,233.82-94.52,75.91-210.78,120.03-332.13,124.3-.84,2.31,2.89,10.2,1.22,11.31-2.28,1.51-11.07-9.54-12.8-10.42l-23.08-.79Z"/>
    <path fill="#fbfafa" d="M655.47,47.58c139.32,18,263.84,90.76,349.27,201.24,107.1,138.5,140.29,321.99,101.1,491.25-27.68,119.54-92.41,227.05-186.01,306.36-81.56,69.11-183.98,112.78-290.48,122.04-3.76,6.48-9.34,10.14-14.95,14.7,89.29-5.03,174.56-32.86,250.13-79.4,47.55-29.28,90.07-66,126.82-108,57.09-65.23,98.86-141.9,122.5-225.52,24.82-87.81,29.63-180.44,14.86-270.46-14.36-87.55-48.13-170.4-99.42-242.57-33.94-47.75-75.15-89.03-122.09-123.84-24.43-18.11-49.92-33.46-77-47.19-85.07-43.15-179.41-61.93-274.54-56.52-152.03,8.65-294.52,79.69-391.93,196.65-71.35,85.68-116.14,188.26-130.53,299.23-8.3,63.94-7.13,128.37,5.1,191.82,47.6,246.81,250.21,444.29,504.44,465.48,2.78.13,1.41-1.1-.46-1.4-4.9-3.79-9.58-7.17-12.91-13.41C226.55,1132.77,16.4,851.03,46.15,549.57c5.73-58,18.95-115.13,41.53-169.28,34.1-81.76,86.61-154.78,154.48-211.83,84.98-71.43,190.36-114.18,300.95-123.08,37.4-3.01,74.41-2.71,112.36,2.19Z"/>
    <path fill="#fbfafa" d="M690.07,1096.98c-14.02,4.35-26.48,8.79-39.44,15.2,5.12-15.88,13.28-29.01,21.37-42.79,6.27-10.68,10.15-21.68,8.63-34.34,19.12-4.88,38.02-18.11,52.55-30.72,36.89-32.03,62.63-42.26,101.78-68.13,34.73-22.95,64.18-51.59,87.73-85.99,25.17-36.76,44.79-76.24,58-118.78,16.28-52.42,18.93-104.87,2.82-157.44-5.23-17.06-10.95-32.58-17.08-49.29-10.39-28.34-18.2-56.63-23.25-86.44-2.61-15.45-5.38-29.68-9.43-44.75-11.32-42.14-35.35-78.33-69.95-104.99-23.72-18.28-49.81-31.89-78.32-41.38l-56.36-18.77c-42.53-14.16-88.31-36.74-116.99-71.84-14.68-17.97-26.28-47.87-3.22-63.22,20.12-13.39,48.88-8.42,68.7,4.56,14.78,9.67,28.22,20.59,40.74,33.79-10.61,3.1-47.78-15.1-53.03-6.55-1.05,1.72-.97,4.76.67,6.66,17.78,20.6,57.8,38.45,84.14,44.58l50.2,11.68c24.6,5.73,47.65,13.49,70.17,24.76,78.08,39.09,122.74,111.82,132.63,197.54,3.96,34.29,12.57,66.3,26.14,97.94,7.9,18.43,14.88,36.18,20.78,55.28,17.23,55.83,15.86,112.72.03,168.87-13.41,47.55-32.68,92.66-58.07,135.03-16.1,26.87-34.63,51.12-56.88,73.04-31.31,30.84-63.74,48.75-102.58,68.3-26.46,13.32-50.15,29.26-72.6,48.63-20.29,18.55-43.16,31.23-69.87,39.52Z"/>
    <path fill="#fbfafa" d="M505.08,1107.36c-10.55-4.48-20.69-8.33-31.67-12.06-23.47-7.97-44.55-19.4-63.41-35.83-46.73-40.7-64.98-45.19-115.9-74.11-43.56-24.74-79.69-58.63-108.11-100-21.9-31.88-39.51-65.83-54.18-101.68-30.3-74.02-40.19-146.35-13.9-223.36,20.75-60.79,37.68-76.94,47.44-147.63,12.93-93.64,65.76-173.08,155.17-208.66,22.11-8.8,44.31-14.71,67.78-19.43,36.72-7.39,71.83-16.29,102.39-38.52,4.12-3,20.61-15.25,16.76-20.51-6.35-8.69-41.37,8.99-54.63,6.8,13.95-13.6,28.3-25.66,44.61-35.52,19.78-11.96,47.02-16.57,66.4-3.29,11.41,7.82,15.68,20.61,12.2,33.94-7.39,28.33-36.39,53.2-60.45,68.41-34.73,21.95-75.92,34.75-114.91,47.22-22.25,7.11-43,15.32-63.35,26.68-60.29,33.67-96.98,85.14-109.32,153.38-6.17,34.13-14.69,66.35-27.4,98.62-17.31,43.95-30.69,82.04-29.43,130.16.89,34.12,7.85,66.62,20.21,98.35,14.68,37.68,33.35,73.08,57.06,105.87,24.54,33.95,55.48,61.84,91.04,83.64l48.52,29.75c34.32,21.04,53.39,47.86,89.62,62.66-1.9,12.59,1.18,24.25,7.67,35.14,7.75,13,15.38,25.49,20.89,39.9.62.71-.5.76-1.1.07Z"/>
  </g>
</svg>
