<?xml version="1.0" encoding="UTF-8"?>
<svg id="Ebene_2" data-name="Ebene 2" xmlns="http://www.w3.org/2000/svg" viewBox="0 0 1165.67 1221.02">
  <defs>
    <style>
      .cls-1 {
        fill: #fbfafa;
      }

      .cls-2 {
        fill: #610913;
      }
    </style>
  </defs>
  <g id="Ebene_1-2" data-name="Ebene 1">
    <g>
      <path class="cls-2" d="M568.09,1209.62c-4.03,5.21-7.88,9.14-13.59,11.41-.41-4.23,2.02-7.03,2.35-11.71-134.35-7.08-260.79-62.96-359.1-154.54-58.04-54.07-105.33-118.28-138.92-190.17-16.7-35.74-30.19-72.61-39.98-110.88-23.77-92.92-24.65-189.71-4.96-283.48,8.28-39.44,20.6-77.38,36.6-114.32,41.42-95.69,107.23-179.6,191.07-241.85,56.17-41.71,119.5-72.83,186.73-92.14C485.65,5.45,544.92-1.43,604.46.25c125.39,3.53,245.15,48.76,342.2,127.83,52.71,42.95,97.26,95.01,132.29,153.5,102.23,170.74,114.38,387.6,34.82,569.8-39.79,91.12-101.32,171.53-178.89,233.82-94.52,75.91-210.78,120.03-332.13,124.3-.84,2.31,2.89,10.2,1.22,11.31-2.28,1.51-11.07-9.54-12.8-10.42l-23.08-.79ZM655.47,47.58c139.32,18,263.84,90.76,349.27,201.24,107.1,138.5,140.29,321.99,101.1,491.25-27.68,119.54-92.41,227.05-186.01,306.36-81.56,69.11-183.98,112.78-290.48,122.04-3.76,6.48-9.34,10.14-14.95,14.7,89.29-5.03,174.56-32.86,250.13-79.4,47.55-29.28,90.07-66,126.82-108,57.09-65.23,98.86-141.9,122.5-225.52,24.82-87.81,29.63-180.44,14.86-270.46-14.36-87.55-48.13-170.4-99.42-242.57-33.94-47.75-75.15-89.03-122.09-123.84-24.43-18.11-49.92-33.46-77-47.19-85.07-43.15-179.41-61.93-274.54-56.52-152.03,8.65-294.52,79.69-391.93,196.65-71.35,85.68-116.14,188.26-130.53,299.23-8.3,63.94-7.13,128.37,5.1,191.82,47.6,246.81,250.21,444.29,504.44,465.48,2.78.13,1.41-1.1-.46-1.4-4.9-3.79-9.58-7.17-12.91-13.41C226.55,1132.77,16.4,851.03,46.15,549.57c5.73-58,18.95-115.13,41.53-169.28,34.1-81.76,86.61-154.78,154.48-211.83,84.98-71.43,190.36-114.18,300.95-123.08,37.4-3.01,74.41-2.71,112.36,2.19ZM690.07,1096.98c26.71-8.29,49.59-20.96,69.87-39.52,22.44-19.37,46.14-35.31,72.6-48.63,38.84-19.55,71.28-37.47,102.58-68.3,22.25-21.92,40.78-46.16,56.88-73.04,25.39-42.37,44.66-87.48,58.07-135.03,15.83-56.15,17.2-113.04-.03-168.87-5.89-19.1-12.87-36.84-20.78-55.28-13.57-31.65-22.18-63.65-26.14-97.94-9.89-85.72-54.56-158.45-132.63-197.54-22.52-11.28-45.57-19.04-70.17-24.76l-50.2-11.68c-26.34-6.13-66.36-23.98-84.14-44.58-1.64-1.9-1.72-4.94-.67-6.66,5.25-8.55,42.41,9.65,53.03,6.55-12.51-13.2-25.96-24.11-40.74-33.79-19.82-12.97-48.58-17.95-68.7-4.56-23.06,15.35-11.47,45.26,3.22,63.22,28.69,35.1,74.47,57.68,116.99,71.84l56.36,18.77c28.51,9.49,54.6,23.1,78.32,41.38,34.6,26.65,58.63,62.85,69.95,104.99,4.05,15.07,6.81,29.29,9.43,44.75,5.04,29.8,12.85,58.1,23.25,86.44,6.13,16.71,11.85,32.23,17.08,49.29,16.11,52.57,13.46,105.02-2.82,157.44-13.21,42.54-32.83,82.02-58,118.78-23.56,34.4-53,63.04-87.73,85.99-39.15,25.87-64.89,36.1-101.78,68.13-14.53,12.61-33.43,25.84-52.55,30.72,1.52,12.66-2.36,23.66-8.63,34.34-8.09,13.78-16.24,26.91-21.37,42.79,12.96-6.42,25.42-10.85,39.44-15.2ZM505.08,1107.36c.61.69,1.72.64,1.1-.07-5.51-14.42-13.13-26.9-20.89-39.9-6.49-10.89-9.57-22.55-7.67-35.14-36.22-14.81-55.3-41.62-89.62-62.66l-48.52-29.75c-35.56-21.8-66.5-49.7-91.04-83.64-23.71-32.8-42.39-68.2-57.06-105.87-12.36-31.73-19.32-64.22-20.21-98.35-1.26-48.12,12.12-86.21,29.43-130.16,12.71-32.27,21.23-64.49,27.4-98.62,12.34-68.23,49.03-119.71,109.32-153.38,20.34-11.36,41.1-19.56,63.35-26.68,38.99-12.47,80.17-25.26,114.91-47.22,24.06-15.21,53.06-40.08,60.45-68.41,3.48-13.33-.8-26.12-12.2-33.94-19.38-13.29-46.62-8.67-66.4,3.29-16.31,9.86-30.66,21.92-44.61,35.52,13.26,2.19,48.28-15.49,54.63-6.8,3.84,5.26-12.64,17.51-16.76,20.51-30.57,22.23-65.67,31.13-102.39,38.52-23.47,4.72-45.67,10.63-67.78,19.43-89.4,35.58-142.24,115.02-155.17,208.66-9.76,70.68-26.69,86.84-47.44,147.63-26.29,77.01-16.4,149.35,13.9,223.36,14.68,35.84,32.28,69.8,54.18,101.68,28.43,41.37,64.55,75.26,108.11,100,50.92,28.92,69.18,33.4,115.9,74.11,18.86,16.43,39.93,27.86,63.41,35.83,10.98,3.73,21.11,7.58,31.67,12.06ZM601.81,315.88l7.9-81.51c-20.97-1.23-40.98-.73-61.5,2.43l13.49,81.84c13.51-2,26.21-2.51,40.12-2.76ZM662.16,324.91l27.75-73.24c-19.86-7.17-39-12.07-59.26-14.84l-8.17,80.54c14.09,1.28,26.5,4.62,39.68,7.54ZM541.37,322.45l-14.4-81.97c-20.38,4.45-38.88,10.62-57.84,18.79l34.35,76.04c12.74-5.46,25.11-9.29,37.89-12.86ZM707.5,345.14l41.21-63.58c-13.18-8.41-25.8-15.64-39.55-21.12l-28.01,71.83,26.34,12.86ZM485.25,344.59l-35.1-76.17c-18.4,9.21-34.43,19.18-50.18,31.8l53.02,66.04c10.16-8.03,20.29-14.78,32.25-21.68ZM415.57,405.09c7.31-9.81,14.64-17.48,22.29-25.59l-53.35-65.65c-13.65,13.38-25.45,27.27-36.16,43.57l67.23,47.66ZM525.17,487.74l26.67-19.51c27.48-20.1,54.34-39.62,83.38-57.55,22.96-14.18,45.53-26.58,70.24-38.69-73.04-45.24-164.43-39.56-231.21,11.57-10.22,8.11-18.45,16.43-26.64,26.64-31,40.19-47.37,89.38-47.36,141.13,11.39-8.75,23.31-14.2,36.8-17.41-1.41-17.88,10.49-32.86,28.14-36.22,18.13-3.44,39.28,5.16,59.97-9.97ZM829.3,522.03c7.65-7.96,8.45-18.08,5.94-27.74-6.61-25.42-22.15-51.6-44.22-66.67-4.53-3.1-9.2-3.47-14.52-1.5-23.28,8.62-45.26,18.56-68.11,28.82l-105.45,47.38c-14.83,6.66-28.42,13.1-45.47,16.8l89.37-52.56c39.85-23.43,81.39-42.29,124.34-58.69,20.46-7.81,34.32,6.34,47.96,19.28.47-3.98-.82-7.05-2.56-10.26-10.24-18.9-21.75-36.77-36.79-52.21-2.77-2.84-7.34-1.25-10.6.05-83.61,33.27-147.54,73.72-218.59,128.27-6.83,5.25-13.3,9.91-20.65,14.16-24.15,13.99-40.76,6.3-61.23,9.11-7.35,1.01-14.16,9.53-10.44,15.95,6.52.85,15.47.92,22.67,3.07,62.58,18.66,73.26,15.02,133.86-2.28l83.93-23.96c22.02-6.29,43.39-11.32,65.98-14.66,23.68-3.51,62.74-4.67,64.58,27.64ZM387.01,455.16c5.04-13.16,10.94-22.99,16.97-33.92l-66.45-46.09c-10.47,17.1-18.22,35-24.87,54.55l74.35,25.46ZM371.15,511.2c2.19-13.55,4.76-25.21,8.77-37.85l-73.01-24.14c-5.7,20.93-8.48,41.02-8.96,62.02l73.2-.03ZM761.31,780.6c9.42-.48,28.3,2.81,28.8-8.3.18-4.02-2.72-7.16-6.84-8.43-16.02-4.94-30.98,7.46-48.06-.79,13.76-5.03,25.91-10.8,38.6-16.64,13.8-6.34,20.64,4.44,23.47-.32s-8.82-10.29-2.12-28.13c-9.7-4.82-16.9,4.65-28.46-.25-5.27-2.24-8.33-6.75-9.11-12.37-.65-4.7,1.83-10.04,6.49-12.93.02,5.31.15,10.07,3.87,13.25,8.1,6.91,18.33-11.83,39.63-.64,6.69,3.52,16.13,6.22,21.07-.47,2.27-3.08,1.98-5.98.85-9.7l-26.59-87.91c-2.53-8.36,4.98-17.09,10.63-21.63,4.52-3.64,7.22-7.46,5.81-13.18l-4.75-19.28c-2.71-11.01-5.52-21.6-7.06-32.87-.46-3.34-2.16-5.15-5.45-5.93-12.48-2.95-24.91-2.43-37.68-.44-15.94,2.48-30.96,5.48-46.57,9.82l-82.93,23.07c-4.29,11.56-10.64,20.99-19.03,29.83-6.22,6.56-13.32,11.86-19.09,18.87-4.49,5.45-7.54,11.56-11.37,17.59-12.33,19.42-36.58,27.31-57.53,16.94-2.82-1.39-5.19-2.24-8.37.1-4.94-18.57-19.9-31.84-38.96-32.64-15.65-.66-28.52,9.06-32.94,23.98-9.51,32.11,19.04,70.11,43.81,87.77,6.65,4.74,14.57,7.06,22.26,5.1,6.57-1.68,11.09-6.48,15.09-11.95,5.55,15.09,6,25.98,11.35,43.25,7.02,22.66,20.83,41.27,40.28,54.81,15.74,10.95,32.13,19.02,50.37,25.67,31.43,11.47,63.01,20.47,95.79,27.11,16.75,3.39,41.9,5.53,51.36-11.68,9.06-16.48.81-28.27-1.2-44.57-6.16-2.53-12.38-10.71-15.41-16.11ZM369.19,531.24l-35.66,1h-35.41c1.19,21.49,4.08,41.36,10.13,61.11l61.41-23.54c-.78-12.89-1.73-24.9-.46-38.58ZM346.49,752.51c-10.4-17.06-8.07-36.89,5.53-51.19,6.25-6.57,14.24-10.47,22.58-14.45,18.32-8.74,31.45-23.89,36.17-43.79,1.53-6.43,3-12.58,5.21-18.79,11.52-32.33,47.45-48.99,79.19-39.88l24.7,7.09c33.35,9.58,61.21-11.38,82.48-35.74-32.6,9.2-57.77,14.96-91.29,6.46l-35.69-9.05c-17.91-4.54-35.29-2-51.57,6.21-22.68,11.44-36.98,32.03-40.47,57.36-2.92,21.15-14.51,38.65-33.64,48.39-7.79,3.97-15.15,7.54-22.1,12.87-22.13,16.98-25.88,47.02-9.3,69.44,5.12,6.92,9.72,13.8,12.59,22.06,5.03,14.45,1.46,29.58-9.99,39.86-10.27,9.23-15.36,22.42-11.96,36.2,2.63,10.68,8.01,21.44,18.11,27.68-7.61-16.77-4.9-33.89,7.92-46,3.76-3.55,7.78-6.69,11.78-10.09,11.94-10.14,16.54-25.24,11.7-40.41-2.74-8.57-7.04-16.21-11.94-24.26ZM364.2,613.8c1.44-7.94,3.57-15.17,6.37-22.91l-55.53,21.89c4.86,13.81,10.77,26.08,17.35,38.57,16.67-7.58,28.33-19.84,31.82-37.56ZM396.55,945.99c5.55-6.28,9.34-14.05,8.44-22.65-2.1-20.15-23.81-22.43-28.44-41.5-2.71-11.14,1.77-22.37,10.58-29.31l16.76-13.22c19.86-15.66,20.54-42.49,4.9-63.58-12.28-16.56-10-38.38,6.66-50.95s29.28-32.29,20.4-54.11l-6.92-17.02c-10.07,47.5-33.33,46.54-48.8,62.83-12.63,13.3-14.12,31.81-4.67,47.51,3.98,6.62,8.04,12.88,11.07,20.04,6.72,15.93,2.39,33.17-10.82,44.13-4.99,4.14-10.26,7.49-14.96,11.87-11.67,10.88-15.96,26.32-10.58,41.35,3.5,9.79,9.38,18.03,17.66,24.29l19.87,15.02c7.88,5.95,10.88,15.24,8.86,25.3ZM580.02,993.5c31.27,2.03,37.16-17.24,65.43-10.34l29.46-122.36c-32.55-9.9-64.85-19.74-94.33-36.89-35.8-22.2-54.54-49.28-63.28-91.07-18.91,3.74-32.66-3.52-47.47-16.66-3.64,17.82-9.42,34.17-17.89,49.95-3.54,6.59-4.39,12.39-2.34,19.7,9.45,33.74,2.45,62.87-25.08,85.2-5.11,4.15-10.07,7.51-15.09,12.48l23.2,30.27,18.55,21.65c16.23,18.94,33.08,36.5,52.27,52.98,12.49-8.56,27.34-8.57,40.77-2.17,11.17,5.32,22.6,8.06,35.81,7.26ZM599.57,1214.11l-7.1-38.32c14.73-2.42,25.58-11.93,30.08-25.9l13.38-41.56c11.78-36.59,38.37-53.68,26.63-82.49-2.58-6.32-5.68-11.85-9.38-17.71-6.43-10.2-19.08-14.41-30.62-8.75-14.18,6.96-28.12,9.65-44.07,9.47-14.91-.17-27.98-2.51-41.29-9.27-11.81-5.99-25.24-2.01-32.12,8.71-12.09,18.83-18.33,33.73-4.93,55.12,11.51,18.37,20.39,37.41,26.9,58.04l8.88,28.12c4.48,14.2,15.68,23.82,30.84,26.25l-6.99,37.05c5.46-4.24,8-10.99,10.94-17.58,6.06-13.59,6.61-27.51,9.1-42.82,2.79,19.72,4.04,46.81,19.76,61.64Z"/>
      <path class="cls-1" d="M690.07,1096.98c-14.02,4.35-26.48,8.79-39.44,15.2,5.12-15.88,13.28-29.01,21.37-42.79,6.27-10.68,10.15-21.68,8.63-34.34,19.12-4.88,38.02-18.11,52.55-30.72,36.89-32.03,62.63-42.26,101.78-68.13,34.73-22.95,64.18-51.59,87.73-85.99,25.17-36.76,44.79-76.24,58-118.78,16.28-52.42,18.93-104.87,2.82-157.44-5.23-17.06-10.95-32.58-17.08-49.29-10.39-28.34-18.2-56.63-23.25-86.44-2.61-15.45-5.38-29.68-9.43-44.75-11.32-42.14-35.35-78.33-69.95-104.99-23.72-18.28-49.81-31.89-78.32-41.38l-56.36-18.77c-42.53-14.16-88.31-36.74-116.99-71.84-14.68-17.97-26.28-47.87-3.22-63.22,20.12-13.39,48.88-8.42,68.7,4.56,14.78,9.67,28.22,20.59,40.74,33.79-10.61,3.1-47.78-15.1-53.03-6.55-1.05,1.72-.97,4.76.67,6.66,17.78,20.6,57.8,38.45,84.14,44.58l50.2,11.68c24.6,5.73,47.65,13.49,70.17,24.76,78.08,39.09,122.74,111.82,132.63,197.54,3.96,34.29,12.57,66.3,26.14,97.94,7.9,18.43,14.88,36.18,20.78,55.28,17.23,55.83,15.86,112.72.03,168.87-13.41,47.55-32.68,92.66-58.07,135.03-16.1,26.87-34.63,51.12-56.88,73.04-31.31,30.84-63.74,48.75-102.58,68.3-26.46,13.32-50.15,29.26-72.6,48.63-20.29,18.55-43.16,31.23-69.87,39.52Z"/>
      <path class="cls-1" d="M655.47,47.58c-37.95-4.9-74.96-5.2-112.36-2.19-110.59,8.9-215.97,51.64-300.95,123.08-67.87,57.05-120.38,130.07-154.48,211.83-22.59,54.15-35.81,111.28-41.53,169.28-29.76,301.46,180.4,583.2,483.22,618.48,3.33,6.25,8.01,9.63,12.91,13.41,1.87.3,3.24,1.52.46,1.4-254.23-21.19-456.84-218.67-504.44-465.48-12.24-63.45-13.4-127.88-5.1-191.82,14.4-110.97,59.19-213.55,130.53-299.23C261.14,109.37,403.63,38.33,555.66,29.68c95.13-5.41,189.46,13.37,274.54,56.52,27.07,13.73,52.57,29.07,77,47.19,46.94,34.8,88.15,76.08,122.09,123.84,51.29,72.17,85.06,155.02,99.42,242.57,14.76,90.03,9.96,182.65-14.86,270.46-23.64,83.62-65.41,160.29-122.5,225.52-36.76,42-79.27,78.71-126.82,108-75.57,46.54-160.83,74.37-250.13,79.4,5.61-4.57,11.19-8.23,14.95-14.7,106.5-9.26,208.92-52.93,290.48-122.04,93.6-79.32,158.33-186.82,186.01-306.36,39.19-169.26,6-352.75-101.1-491.25-85.43-110.48-209.95-183.24-349.27-201.24Z"/>
      <path class="cls-1" d="M505.08,1107.36c-10.55-4.48-20.69-8.33-31.67-12.06-23.47-7.97-44.55-19.4-63.41-35.83-46.73-40.7-64.98-45.19-115.9-74.11-43.56-24.74-79.69-58.63-108.11-100-21.9-31.88-39.51-65.83-54.18-101.68-30.3-74.02-40.19-146.35-13.9-223.36,20.75-60.79,37.68-76.94,47.44-147.63,12.93-93.64,65.76-173.08,155.17-208.66,22.11-8.8,44.31-14.71,67.78-19.43,36.72-7.39,71.83-16.29,102.39-38.52,4.12-3,20.61-15.25,16.76-20.51-6.35-8.69-41.37,8.99-54.63,6.8,13.95-13.6,28.3-25.66,44.61-35.52,19.78-11.96,47.02-16.57,66.4-3.29,11.41,7.82,15.68,20.61,12.2,33.94-7.39,28.33-36.39,53.2-60.45,68.41-34.73,21.95-75.92,34.75-114.91,47.22-22.25,7.11-43,15.32-63.35,26.68-60.29,33.67-96.98,85.14-109.32,153.38-6.17,34.13-14.69,66.35-27.4,98.62-17.31,43.95-30.69,82.04-29.43,130.16.89,34.12,7.85,66.62,20.21,98.35,14.68,37.68,33.35,73.08,57.06,105.87,24.54,33.95,55.48,61.84,91.04,83.64l48.52,29.75c34.32,21.04,53.39,47.86,89.62,62.66-1.9,12.59,1.18,24.25,7.67,35.14,7.75,13,15.38,25.49,20.89,39.9.62.71-.5.76-1.1.07Z"/>
      <g>
        <path class="cls-1" d="M580.02,993.5c-13.2.8-24.64-1.94-35.81-7.26-13.43-6.39-28.27-6.39-40.77,2.17-19.18-16.48-36.04-34.05-52.27-52.98l-18.55-21.65-23.2-30.27c5.02-4.97,9.98-8.34,15.09-12.48,27.53-22.33,34.53-51.45,25.08-85.2-2.05-7.31-1.2-13.11,2.34-19.7,8.47-15.77,14.25-32.12,17.89-49.95,14.81,13.14,28.56,20.4,47.47,16.66,8.74,41.78,27.48,68.86,63.28,91.07,29.48,17.15,61.78,26.99,94.33,36.89l-29.46,122.36c-28.27-6.9-34.16,12.37-65.43,10.34Z"/>
        <path class="cls-1" d="M525.17,487.74c-20.69,15.13-41.84,6.52-59.97,9.97-17.65,3.35-29.55,18.33-28.14,36.22-13.49,3.21-25.41,8.66-36.8,17.41-.02-51.76,16.36-100.94,47.36-141.13,8.19-10.21,16.42-18.53,26.64-26.64,66.78-51.14,158.17-56.82,231.21-11.57-24.71,12.11-47.28,24.51-70.24,38.69-29.04,17.93-55.9,37.45-83.38,57.55l-26.67,19.51Z"/>
        <path class="cls-1" d="M829.3,522.03c-1.85-32.31-40.9-31.14-64.58-27.64-22.59,3.34-43.96,8.37-65.98,14.66l-83.93,23.96c-60.6,17.3-71.27,20.94-133.86,2.28-7.2-2.15-16.15-2.22-22.67-3.07-3.72-6.42,3.09-14.94,10.44-15.95,20.47-2.81,37.08,4.87,61.23-9.11,7.35-4.26,13.82-8.92,20.65-14.16,71.06-54.55,134.99-95,218.59-128.27,3.26-1.3,7.83-2.89,10.6-.05,15.03,15.43,26.54,33.31,36.79,52.21,1.74,3.22,3.03,6.28,2.56,10.26-13.64-12.95-27.5-27.1-47.96-19.28-42.95,16.39-84.49,35.26-124.34,58.69l-89.37,52.56c17.05-3.7,30.64-10.14,45.47-16.8l105.45-47.38c22.84-10.26,44.83-20.21,68.11-28.82,5.31-1.97,9.98-1.59,14.52,1.5,22.07,15.07,37.61,41.25,44.22,66.67,2.51,9.67,1.71,19.78-5.94,27.74Z"/>
        <path class="cls-1" d="M346.49,752.51c4.91,8.05,9.21,15.69,11.94,24.26,4.84,15.17.24,30.27-11.7,40.41-4,3.4-8.02,6.54-11.78,10.09-12.81,12.1-15.53,29.23-7.92,46-10.09-6.24-15.48-17-18.11-27.68-3.39-13.78,1.7-26.97,11.96-36.2,11.45-10.28,15.02-25.41,9.99-39.86-2.88-8.26-7.48-15.14-12.59-22.06-16.58-22.43-12.83-52.47,9.3-69.44,6.95-5.33,14.31-8.9,22.1-12.87,19.13-9.74,30.73-27.24,33.64-48.39,3.49-25.33,17.79-45.91,40.47-57.36,16.28-8.22,33.67-10.75,51.57-6.21l35.69,9.05c33.52,8.5,58.69,2.74,91.29-6.46-21.27,24.36-49.13,45.31-82.48,35.74l-24.7-7.09c-31.74-9.12-67.66,7.55-79.19,39.88-2.21,6.21-3.69,12.35-5.21,18.79-4.73,19.89-17.85,35.04-36.17,43.79-8.33,3.98-16.33,7.88-22.58,14.45-13.6,14.3-15.93,34.13-5.53,51.19Z"/>
        <path class="cls-1" d="M396.55,945.99c2.02-10.06-.98-19.35-8.86-25.3l-19.87-15.02c-8.28-6.26-14.16-14.5-17.66-24.29-5.38-15.04-1.09-30.48,10.58-41.35,4.7-4.38,9.97-7.73,14.96-11.87,13.21-10.96,17.55-28.2,10.82-44.13-3.03-7.17-7.09-13.42-11.07-20.04-9.44-15.69-7.96-34.2,4.67-47.51,15.47-16.29,38.72-15.32,48.8-62.83l6.92,17.02c8.88,21.82-3.33,41.24-20.4,54.11s-18.94,34.39-6.66,50.95c15.64,21.09,14.96,47.92-4.9,63.58l-16.76,13.22c-8.81,6.95-13.29,18.17-10.58,29.31,4.63,19.07,26.35,21.34,28.44,41.5.89,8.59-2.89,16.37-8.44,22.65Z"/>
        <path class="cls-1" d="M541.37,322.45c-12.77,3.58-25.15,7.4-37.89,12.86l-34.35-76.04c18.95-8.17,37.45-14.34,57.84-18.79l14.4,81.97Z"/>
        <path class="cls-1" d="M601.81,315.88c-13.91.25-26.61.76-40.12,2.76l-13.49-81.84c20.53-3.16,40.54-3.66,61.5-2.43l-7.9,81.51Z"/>
        <path class="cls-1" d="M485.25,344.59c-11.96,6.9-22.09,13.65-32.25,21.68l-53.02-66.04c15.74-12.63,31.77-22.6,50.18-31.8l35.1,76.17Z"/>
        <path class="cls-1" d="M662.16,324.91c-13.17-2.93-25.59-6.26-39.68-7.54l8.17-80.54c20.26,2.77,39.4,7.67,59.26,14.84l-27.75,73.24Z"/>
        <path class="cls-1" d="M387.01,455.16l-74.35-25.46c6.66-19.55,14.4-37.45,24.87-54.55l66.45,46.09c-6.03,10.93-11.94,20.76-16.97,33.92Z"/>
        <path class="cls-1" d="M371.15,511.24l-73.2.03c.48-21,3.26-41.09,8.96-62.02l73.01,24.14c-4.01,12.64-6.58,24.3-8.77,37.85Z"/>
        <path class="cls-1" d="M415.57,405.09l-67.23-47.66c10.71-16.31,22.51-30.2,36.16-43.57l53.35,65.65c-7.64,8.11-14.98,15.78-22.29,25.59Z"/>
        <path class="cls-1" d="M369.19,532.24c-1.27,12.68-.32,24.68.46,37.58l-61.41,23.54c-6.05-19.75-8.94-39.62-10.13-62.11l35.41,1h35.66Z"/>
        <path class="cls-1" d="M707.5,345.14l-26.34-12.86,28.01-71.83c13.75,5.47,26.37,12.7,39.55,21.12l-41.21,63.58Z"/>
        <path class="cls-1" d="M364.2,613.8c-3.5,17.71-15.15,29.97-31.82,37.56-6.57-12.49-12.49-24.76-17.35-38.57l55.53-21.89c-2.79,7.74-4.92,14.96-6.37,22.91Z"/>
        <path class="cls-1" d="M599.57,1214.11c-15.72-14.82-16.97-41.92-19.76-61.64-2.48,15.31-3.03,29.23-9.1,42.82-2.94,6.59-5.48,13.34-10.94,17.58l6.99-37.05c-15.16-2.43-26.36-12.06-30.84-26.25l-8.88-28.12c-6.51-20.62-15.39-39.67-26.9-58.04-13.4-21.38-7.16-36.28,4.93-55.12,6.88-10.72,20.31-14.7,32.12-8.71,13.32,6.75,26.39,9.1,41.29,9.27,15.95.18,29.9-2.51,44.07-9.47,11.54-5.66,24.19-1.45,30.62,8.75,3.7,5.86,6.8,11.39,9.38,17.71,11.75,28.81-14.85,45.9-26.63,82.49l-13.38,41.56c-4.5,13.97-15.34,23.48-30.08,25.9l7.1,38.32ZM531.43,1039.38c4.23.83,7.9-.63,11.34-2.43-6.25-7.08-12.15-13-19.35-19.26-.28,2.92.62,5.04-.5,7.73-.99,5.88,1.85,12.66,8.51,13.96ZM631.03,1037.86c6.29-4.43,5.8-12.15,2.95-19-6.9,5.34-12.49,11.87-18.22,18.32,4.72,2.71,10.59,3.97,15.27.67ZM591.26,1164.46c10.32-1.36,18.59-8.19,21.81-18.12l7.33-22.54c6.75-20.76,14.7-40.15,25.66-59.67-9.06,4.25-16.94,7.17-26.46,7.76-2.6,10.49-6.17,19.96-14.01,27.51.5-10.19.93-18.82-.42-28.47-16.81-5.74-34.62-5.71-51.71.06-2.13,9.83-1.99,19.08-.25,29.51-8.17-7.75-11.37-17.81-14.27-28.67-9.58-.22-17.87-3.12-26.96-7.98,10.87,19.97,19.62,38.85,25.92,59.73,6.88,18.27,7.58,37.99,30.22,41.18,3.06-15.01-2.51-25.18-4.95-39.58-1.16-6.84.75-14.72,6.7-18.51,4.04-2.58,8.52,23.3,10.05,26.41,2.52-8.88,4.29-17.92,8.32-27.16,18.76,11.86-.95,39.69,3.03,58.55Z"/>
        <path class="cls-2" d="M591.26,1164.46c-3.97-18.86,15.73-46.69-3.03-58.55-4.03,9.24-5.79,18.28-8.32,27.16-1.52-3.11-6-28.99-10.05-26.41-5.95,3.79-7.86,11.67-6.7,18.51,2.44,14.4,8.01,24.58,4.95,39.58-22.65-3.2-23.34-22.91-30.22-41.18-6.3-20.88-15.05-39.75-25.92-59.73,9.1,4.86,17.39,7.76,26.96,7.98,2.9,10.87,6.1,20.93,14.27,28.67-1.74-10.43-1.88-19.68.25-29.51,17.09-5.77,34.9-5.8,51.71-.06,1.35,9.65.92,18.28.42,28.47,7.84-7.55,11.41-17.02,14.01-27.51,9.52-.59,17.41-3.5,26.46-7.76-10.97,19.51-18.92,38.91-25.66,59.67l-7.33,22.54c-3.23,9.93-11.5,16.76-21.81,18.12Z"/>
        <path class="cls-2" d="M631.03,1037.86c-4.68,3.3-10.55,2.04-15.27-.67,5.73-6.45,11.32-12.98,18.22-18.32,2.86,6.85,3.34,14.56-2.95,19Z"/>
        <path class="cls-2" d="M531.43,1039.38c-6.66-1.3-9.5-8.08-8.51-13.96,1.13-2.69.22-4.81.5-7.73,7.2,6.26,13.1,12.18,19.35,19.26-3.44,1.8-7.11,3.26-11.34,2.43Z"/>
        <g>
          <path class="cls-1" d="M761.31,780.6c3.03,5.41,9.25,13.58,15.41,16.11,2.02,16.3,10.27,28.09,1.2,44.57-9.46,17.21-34.61,15.07-51.36,11.68-32.78-6.64-64.36-15.64-95.79-27.11-18.24-6.66-34.63-14.72-50.37-25.67-19.45-13.54-33.26-32.15-40.28-54.81-5.35-17.27-5.8-28.16-11.35-43.25-4,5.47-8.52,10.27-15.09,11.95-7.69,1.97-15.61-.35-22.26-5.1-24.77-17.66-53.32-55.67-43.81-87.77,4.42-14.93,17.29-24.64,32.94-23.98,19.06.8,34.02,14.07,38.96,32.64,3.18-2.34,5.56-1.5,8.37-.1,20.95,10.37,45.2,2.48,57.53-16.94,3.83-6.03,6.89-12.14,11.37-17.59,5.77-7.01,12.87-12.31,19.09-18.87,8.39-8.84,14.74-18.28,19.03-29.83l82.93-23.07c15.61-4.34,30.63-7.34,46.57-9.82,12.77-1.98,25.2-2.5,37.68.44,3.28.78,4.99,2.59,5.45,5.93,1.54,11.27,4.35,21.86,7.06,32.87l4.75,19.28c1.41,5.72-1.29,9.54-5.81,13.18-5.66,4.55-13.16,13.28-10.63,21.63l26.59,87.91c1.13,3.72,1.42,6.62-.85,9.7-4.94,6.69-14.38,3.99-21.07.47-21.3-11.19-31.53,7.55-39.63.64-3.72-3.17-3.85-7.93-3.87-13.25-4.65,2.89-7.13,8.22-6.49,12.93.77,5.61,3.84,10.13,9.11,12.37,11.55,4.91,18.75-4.57,28.46.25-6.71,17.85,5.07,23.16,2.12,28.13s-9.67-6.02-23.47.32c-12.69,5.84-24.85,11.6-38.6,16.64,17.08,8.26,32.03-4.15,48.06.79,4.12,1.27,7.02,4.41,6.84,8.43-.5,11.11-19.38,7.82-28.8,8.3ZM760.21,633.79c9.26-6,11.05-16.98,3.93-25.99,2.42-2.89,4.84-7.39,8.54-8.65,10.58-3.61,16.96-12.79,14.94-23.9-6.31,6.31-13.91,7.66-21.74,5.44l-28.14-7.97c-26.42-7.49-52.07,1.74-73.31,17.03,7.8-1.1,14.63-3.32,22.22-4.8,21.37-4.17,40.45-.08,59.24,11.27-31.32-4.14-45.62,1.37-73.72,12.57,12.02,7.73,22.93,14.96,35.35,20.91,14.55,6.97,38.51,13.29,52.68,4.11ZM487.43,673.42c8.04,4.45,21.82,15.43,27.27,6.34,1.96-3.27,1.32-8.35-2.07-11-5.46-4.25-8.68-10.85-6.6-18.13,5.02-17.54-4.43-35.91-22.58-40.45-10.27-2.57-19.98,3.81-22.73,13.79-2.3,8.33-.93,16.56,2.41,24.19-.51-10.36,3.7-28.52,16.29-27.12,6.69.74,11.5,5.87,13.97,11.88-9.59,2.22-15.53,9.42-16.68,17.82-1.27,9.24,2.25,18,10.72,22.68ZM655.89,728.69c3.85,3.05,10.1.85,11.7-3.79,1.36-3.92-.54-8.82-5.57-10.59-3.41-1.2-7.26,2.04-8.45,4.91-1.26,3.05-.64,7.12,2.32,9.46Z"/>
          <path class="cls-2" d="M487.43,673.42c-8.47-4.68-11.99-13.43-10.72-22.68,1.15-8.4,7.1-15.6,16.68-17.82-2.47-6.02-7.28-11.14-13.97-11.88-12.59-1.4-16.8,16.76-16.29,27.12-3.34-7.64-4.71-15.86-2.41-24.19,2.75-9.98,12.46-16.35,22.73-13.79,18.15,4.54,27.59,22.91,22.58,40.45-2.08,7.29,1.14,13.88,6.6,18.13,3.39,2.64,4.03,7.72,2.07,11-5.45,9.09-19.23-1.89-27.27-6.34Z"/>
          <path class="cls-2" d="M655.89,728.69c-2.96-2.35-3.58-6.41-2.32-9.46,1.19-2.87,5.04-6.11,8.45-4.91,5.03,1.77,6.93,6.67,5.57,10.59-1.61,4.64-7.86,6.84-11.7,3.79Z"/>
          <g>
            <path class="cls-2" d="M760.21,633.79c-14.17,9.18-38.13,2.85-52.68-4.11-12.42-5.95-23.34-13.18-35.35-20.91,28.1-11.19,42.4-16.71,73.72-12.57-18.79-11.35-37.86-15.44-59.24-11.27-7.6,1.48-14.42,3.71-22.22,4.8,21.24-15.28,46.89-24.51,73.31-17.03l28.14,7.97c7.82,2.22,15.42.87,21.74-5.44,2.01,11.11-4.36,20.28-14.94,23.9-3.7,1.26-6.12,5.76-8.54,8.65,7.12,9.02,5.34,19.99-3.93,25.99ZM754.52,624.6c3.43-1.99,3.75-5.68,1.47-8.4-11.1-11.66-42.54-11.96-57.93-5.07,13.34,9.62,40.81,22.56,56.46,13.46Z"/>
            <path class="cls-1" d="M754.52,624.6c-15.64,9.09-43.12-3.84-56.46-13.46,15.39-6.9,46.83-6.59,57.93,5.07,2.27,2.71,1.96,6.4-1.47,8.4Z"/>
          </g>
        </g>
      </g>
    </g>
  </g>
</svg>
